<?xml version="1.0" encoding="UTF-8"?>
<!DOCTYPE svg PUBLIC "-//W3C//DTD SVG 1.1//EN" "http://www.w3.org/Graphics/SVG/1.1/DTD/svg11.dtd">
<svg xmlns="http://www.w3.org/2000/svg" version="1.1" width="338px" height="368px" style="shape-rendering:geometricPrecision; text-rendering:geometricPrecision; image-rendering:optimizeQuality; fill-rule:evenodd; clip-rule:evenodd" xmlns:xlink="http://www.w3.org/1999/xlink">
<g><path style="opacity:0.964" fill="#7a300b" d="M 177.5,-0.5 C 181.167,-0.5 184.833,-0.5 188.5,-0.5C 199.806,0.904531 209.306,5.90453 217,14.5C 219.374,17.9145 221.207,21.5811 222.5,25.5C 220.216,25.0248 218.216,24.0248 216.5,22.5C 208.325,22.346 200.658,24.5127 193.5,29C 199.439,27.1458 205.606,25.9791 212,25.5C 215.986,25.4325 219.819,26.0992 223.5,27.5C 223.666,31.5138 223.499,35.5138 223,39.5C 221.119,36.6491 220.285,36.9825 220.5,40.5C 221.81,53.399 221.143,66.0657 218.5,78.5C 218.556,63.7965 217.89,49.1298 216.5,34.5C 213.133,34.5429 209.799,34.2096 206.5,33.5C 197.84,35.5022 189.173,35.6688 180.5,34C 172.886,29.2715 164.72,26.1049 156,24.5C 154.076,24.5811 152.243,24.9144 150.5,25.5C 150.879,18.4159 153.212,12.0826 157.5,6.5C 157.333,6.16667 157.167,5.83333 157,5.5C 149.75,12.0814 147.25,20.0814 149.5,29.5C 150.074,40.5184 150.574,51.5184 151,62.5C 148.962,67.5794 146.629,72.5794 144,77.5C 142.945,89.003 145.945,99.3364 153,108.5C 156.667,112.167 160.333,115.833 164,119.5C 164.333,113.167 164.667,106.833 165,100.5C 165.833,99.6667 166.667,98.8333 167.5,98C 174.647,98.004 181.647,97.1706 188.5,95.5C 191.022,96.0888 193.522,96.7554 196,97.5C 200.856,95.9202 205.522,96.2535 210,98.5C 210.167,99.8333 210.333,101.167 210.5,102.5C 209.66,106.844 209.16,111.178 209,115.5C 212.763,107.704 215.596,99.7042 217.5,91.5C 218.917,101.249 218.417,110.916 216,120.5C 214.861,124.112 213.194,127.446 211,130.5C 209.549,132.464 207.716,133.797 205.5,134.5C 204.167,135.167 202.833,135.833 201.5,136.5C 200.833,136.5 200.5,136.833 200.5,137.5C 198.77,138.026 197.436,139.026 196.5,140.5C 182.116,145.05 169.116,142.55 157.5,133C 158.622,129.591 158.789,126.091 158,122.5C 156.644,121.62 155.144,121.286 153.5,121.5C 154.167,120.833 154.833,120.167 155.5,119.5C 155.229,117.57 154.229,116.236 152.5,115.5C 152.5,115.167 152.5,114.833 152.5,114.5C 151.433,111.432 149.433,109.432 146.5,108.5C 143.149,94.5817 139.982,80.5817 137,66.5C 136.296,64.273 135.129,63.9397 133.5,65.5C 132.081,64.5489 130.415,64.2155 128.5,64.5C 126.577,53.2588 126.077,41.9255 127,30.5C 128.707,18.8997 134.874,10.733 145.5,6C 156.417,4.42127 167.083,2.2546 177.5,-0.5 Z"/></g>
<g><path style="opacity:1" fill="#170801" d="M 181.5,5.5 C 185.182,5.3347 188.848,5.50137 192.5,6C 182.83,7.33548 173.997,10.8355 166,16.5C 165.333,15.8333 165.333,15.1667 166,14.5C 170.6,10.3738 175.766,7.37379 181.5,5.5 Z"/></g>
<g><path style="opacity:1" fill="#110500" d="M 145.5,8.5 C 146.652,13.9846 146.818,19.6513 146,25.5C 144.172,19.8973 144.006,14.2306 145.5,8.5 Z"/></g>
<g><path style="opacity:1" fill="#1a0b02" d="M 150.5,25.5 C 150.768,27.099 150.434,28.4324 149.5,29.5C 147.25,20.0814 149.75,12.0814 157,5.5C 157.167,5.83333 157.333,6.16667 157.5,6.5C 153.212,12.0826 150.879,18.4159 150.5,25.5 Z"/></g>
<g><path style="opacity:1" fill="#0f0400" d="M 216.5,22.5 C 207.843,17.402 198.51,15.5687 188.5,17C 184.401,18.401 180.401,19.7343 176.5,21C 185.617,14.523 195.617,12.8564 206.5,16C 210.411,17.4442 213.744,19.6109 216.5,22.5 Z"/></g>
<g><path style="opacity:1" fill="#0f0500" d="M 133.5,20.5 C 137.387,18.8003 140.387,19.9669 142.5,24C 139.614,22.9043 136.614,21.7376 133.5,20.5 Z"/></g>
<g><path style="opacity:1" fill="#140701" d="M 216.5,22.5 C 218.216,24.0248 220.216,25.0248 222.5,25.5C 222.833,26.1667 223.167,26.8333 223.5,27.5C 219.819,26.0992 215.986,25.4325 212,25.5C 205.606,25.9791 199.439,27.1458 193.5,29C 200.658,24.5127 208.325,22.346 216.5,22.5 Z"/></g>
<g><path style="opacity:0.999" fill="#fb9a74" d="M 218.5,78.5 C 218.706,82.8982 218.373,87.2315 217.5,91.5C 215.596,99.7042 212.763,107.704 209,115.5C 209.16,111.178 209.66,106.844 210.5,102.5C 210.333,101.167 210.167,99.8333 210,98.5C 205.522,96.2535 200.856,95.9202 196,97.5C 193.522,96.7554 191.022,96.0888 188.5,95.5C 181.647,97.1706 174.647,98.004 167.5,98C 166.667,98.8333 165.833,99.6667 165,100.5C 164.667,106.833 164.333,113.167 164,119.5C 160.333,115.833 156.667,112.167 153,108.5C 145.945,99.3364 142.945,89.003 144,77.5C 146.629,72.5794 148.962,67.5794 151,62.5C 150.574,51.5184 150.074,40.5184 149.5,29.5C 150.434,28.4324 150.768,27.099 150.5,25.5C 152.243,24.9144 154.076,24.5811 156,24.5C 164.72,26.1049 172.886,29.2715 180.5,34C 189.173,35.6688 197.84,35.5022 206.5,33.5C 209.799,34.2096 213.133,34.5429 216.5,34.5C 217.89,49.1298 218.556,63.7965 218.5,78.5 Z"/></g>
<g><path style="opacity:1" fill="#110501" d="M 136.5,29.5 C 137.239,29.369 137.906,29.5357 138.5,30C 133.907,35.0174 130.74,40.8508 129,47.5C 128.449,40.2638 130.949,34.2638 136.5,29.5 Z"/></g>
<g><path style="opacity:1" fill="#150701" d="M 142.5,31.5 C 143.239,31.369 143.906,31.5357 144.5,32C 139.603,36.9539 136.103,42.7872 134,49.5C 133.485,41.8606 136.318,35.8606 142.5,31.5 Z"/></g>
<g><path style="opacity:1" fill="#833712" d="M 166.5,57.5 C 169.5,57.5 172.5,57.5 175.5,57.5C 175.67,58.8221 175.337,59.9887 174.5,61C 168.239,60.8654 162.405,62.3654 157,65.5C 155.174,64.9896 155.007,64.1562 156.5,63C 159.767,60.8703 163.1,59.037 166.5,57.5 Z"/></g>
<g><path style="opacity:1" fill="#7f340e" d="M 197.5,58.5 C 204.972,57.435 211.638,59.1016 217.5,63.5C 215.534,64.372 213.534,64.2053 211.5,63C 206.845,62.5008 202.179,62.3342 197.5,62.5C 197.5,61.1667 197.5,59.8333 197.5,58.5 Z"/></g>
<g><path style="opacity:0.836" fill="#f99872" d="M 128.5,64.5 C 130.415,64.2155 132.081,64.5489 133.5,65.5C 132.5,66.8333 131.5,68.1667 130.5,69.5C 127.5,69.8333 125.833,71.5 125.5,74.5C 124.833,75.8333 123.833,76.8333 122.5,77.5C 121.095,71.3885 123.095,67.0552 128.5,64.5 Z"/></g>
<g><path style="opacity:0.976" fill="#c44302" d="M 146.5,108.5 C 142.042,108.93 137.876,110.264 134,112.5C 135.555,106.445 137.055,100.278 138.5,94C 138.41,90.3157 136.91,87.4823 134,85.5C 133.228,85.6448 132.561,85.9781 132,86.5C 131,89.8333 130,93.1667 129,96.5C 128.186,99.1767 126.686,101.177 124.5,102.5C 123.618,95.2585 122.285,88.0918 120.5,81C 120.978,79.6974 121.645,78.5307 122.5,77.5C 123.833,76.8333 124.833,75.8333 125.5,74.5C 127.5,73.1667 129.167,71.5 130.5,69.5C 131.5,68.1667 132.5,66.8333 133.5,65.5C 135.129,63.9397 136.296,64.273 137,66.5C 139.982,80.5817 143.149,94.5817 146.5,108.5 Z"/></g>
<g><path style="opacity:1" fill="#1d0b00" d="M 132.5,68.5 C 134.912,68.6941 135.912,70.0274 135.5,72.5C 132.046,72.7332 131.046,71.3999 132.5,68.5 Z"/></g>
<g><path style="opacity:1" fill="#110a06" d="M 205.5,69.5 C 206.822,69.33 207.989,69.6634 209,70.5C 209.667,72.5 209.667,74.5 209,76.5C 207.667,77.8333 206.333,77.8333 205,76.5C 204.297,74.0709 204.463,71.7375 205.5,69.5 Z"/></g>
<g><path style="opacity:1" fill="#462111" d="M 130.5,69.5 C 129.167,71.5 127.5,73.1667 125.5,74.5C 125.833,71.5 127.5,69.8333 130.5,69.5 Z"/></g>
<g><path style="opacity:1" fill="#1b120e" d="M 166.5,70.5 C 171.068,70.0826 172.568,72.0826 171,76.5C 169.451,79.0026 167.784,79.0026 166,76.5C 165.51,74.4546 165.677,72.4546 166.5,70.5 Z"/></g>
<g><path style="opacity:1" fill="#160600" d="M 133.5,74.5 C 134.5,74.5 135.5,74.5 136.5,74.5C 136.5,75.8333 136.5,77.1667 136.5,78.5C 135.5,78.5 134.5,78.5 133.5,78.5C 133.5,77.1667 133.5,75.8333 133.5,74.5 Z"/></g>
<g><path style="opacity:1" fill="#1d130f" d="M 187.5,62.5 C 189.109,65.906 190.276,69.5727 191,73.5C 194.045,78.2575 196.545,83.2575 198.5,88.5C 197.181,92.3275 194.514,93.8275 190.5,93C 193.523,92.6748 195.523,91.1748 196.5,88.5C 194.937,85.0432 193.104,81.7099 191,78.5C 188.687,73.4 187.52,68.0666 187.5,62.5 Z"/></g>
<g><path style="opacity:0.997" fill="#fd9c76" d="M 146.5,108.5 C 149.433,109.432 151.433,111.432 152.5,114.5C 143.423,114.436 134.757,116.27 126.5,120C 135.123,118.577 143.789,117.077 152.5,115.5C 154.229,116.236 155.229,117.57 155.5,119.5C 148.054,119.349 140.721,120.183 133.5,122C 140.184,122.546 146.851,122.38 153.5,121.5C 155.144,121.286 156.644,121.62 158,122.5C 158.789,126.091 158.622,129.591 157.5,133C 169.116,142.55 182.116,145.05 196.5,140.5C 197.11,141.391 197.443,142.391 197.5,143.5C 191.445,161.521 179.778,166.354 162.5,158C 158.333,155.167 154.833,151.667 152,147.5C 151.501,151.821 151.334,156.154 151.5,160.5C 151.191,165.364 149.524,169.697 146.5,173.5C 145.662,173.842 145.328,174.508 145.5,175.5C 143.937,176.945 142.604,178.611 141.5,180.5C 141.5,180.833 141.5,181.167 141.5,181.5C 140.115,182.574 138.949,183.907 138,185.5C 132.021,207.437 124.854,228.937 116.5,250C 107.741,248.789 100.074,245.122 93.5,239C 87.724,232.557 82.724,225.557 78.5,218C 79.056,217.617 79.3893,217.117 79.5,216.5C 80.3382,216.158 80.6716,215.492 80.5,214.5C 84.2119,211.789 87.2119,208.456 89.5,204.5C 90.5,204.167 91.1667,203.5 91.5,202.5C 96.395,197.057 101.062,191.39 105.5,185.5C 106.5,185.167 107.167,184.5 107.5,183.5C 113.164,177.524 117.331,170.524 120,162.5C 120.415,156.729 119.748,151.063 118,145.5C 117.148,141.736 115.648,138.403 113.5,135.5C 112.066,132.302 111.566,128.968 112,125.5C 116.191,117.779 120.358,110.113 124.5,102.5C 126.686,101.177 128.186,99.1767 129,96.5C 130,93.1667 131,89.8333 132,86.5C 132.561,85.9781 133.228,85.6448 134,85.5C 136.91,87.4823 138.41,90.3157 138.5,94C 137.055,100.278 135.555,106.445 134,112.5C 137.876,110.264 142.042,108.93 146.5,108.5 Z"/></g>
<g><path style="opacity:1" fill="#e18966" d="M 197.5,105.5 C 192.225,107.352 186.892,107.685 181.5,106.5C 184.102,104.899 186.936,103.565 190,102.5C 192.584,103.589 195.084,104.589 197.5,105.5 Z"/></g>
<g><path style="opacity:1" fill="#f99973" d="M 177.5,106.5 C 181.116,115.138 187.116,117.304 195.5,113C 198.094,110.914 200.094,108.414 201.5,105.5C 203.167,105.5 204.833,105.5 206.5,105.5C 205.475,111.127 204.642,116.793 204,122.5C 201.089,126.277 197.256,127.444 192.5,126C 191.353,123.822 189.687,122.322 187.5,121.5C 185.199,122.857 183.199,124.69 181.5,127C 176.724,127.369 172.557,125.869 169,122.5C 168.104,117.051 168.437,111.718 170,106.5C 172.498,105.221 174.998,105.221 177.5,106.5 Z"/></g>
<g><path style="opacity:1" fill="#100805" d="M 201.5,105.5 C 200.094,108.414 198.094,110.914 195.5,113C 187.116,117.304 181.116,115.138 177.5,106.5C 178.632,105.646 179.965,105.646 181.5,106.5C 186.892,107.685 192.225,107.352 197.5,105.5C 198.961,104.314 200.295,104.314 201.5,105.5 Z"/></g>
<g><path style="opacity:1" fill="#1d140f" d="M 128.5,112.5 C 129.873,112.343 131.207,112.51 132.5,113C 128.443,115.866 124.11,117.866 119.5,119C 122.214,116.322 125.214,114.155 128.5,112.5 Z"/></g>
<g><path style="opacity:1" fill="#201511" d="M 152.5,114.5 C 152.5,114.833 152.5,115.167 152.5,115.5C 143.789,117.077 135.123,118.577 126.5,120C 134.757,116.27 143.423,114.436 152.5,114.5 Z"/></g>
<g><path style="opacity:1" fill="#241813" d="M 155.5,119.5 C 154.833,120.167 154.167,120.833 153.5,121.5C 146.851,122.38 140.184,122.546 133.5,122C 140.721,120.183 148.054,119.349 155.5,119.5 Z"/></g>
<g><path style="opacity:1" fill="#8e5742" d="M 149.5,129.5 C 148.532,131.607 148.198,133.941 148.5,136.5C 147.2,133.976 147.2,131.309 148.5,128.5C 149.107,128.624 149.44,128.957 149.5,129.5 Z"/></g>
<g><path style="opacity:1" fill="#1f1511" d="M 149.5,129.5 C 151.276,129.794 153.276,129.96 155.5,130C 154.149,131.617 152.482,132.784 150.5,133.5C 154.335,134.996 154.335,135.996 150.5,136.5C 150.297,145.635 149.63,145.635 148.5,136.5C 148.198,133.941 148.532,131.607 149.5,129.5 Z"/></g>
<g><path style="opacity:0.989" fill="#90c6cc" d="M 113.5,135.5 C 115.648,138.403 117.148,141.736 118,145.5C 119.748,151.063 120.415,156.729 120,162.5C 117.331,170.524 113.164,177.524 107.5,183.5C 105.109,173.157 102.609,162.824 100,152.5C 100.963,163.61 102.796,174.61 105.5,185.5C 101.062,191.39 96.395,197.057 91.5,202.5C 87.419,189.432 82.2524,176.765 76,164.5C 75.3457,163.304 74.8457,163.304 74.5,164.5C 78.5822,172.267 81.7488,180.267 84,188.5C 77.9204,177.742 69.4204,169.909 58.5,165C 68.703,173.536 77.8697,183.036 86,193.5C 87.3014,195.365 87.6347,197.365 87,199.5C 81.0974,190.763 73.2641,184.429 63.5,180.5C 62.3044,180.846 62.3044,181.346 63.5,182C 70.0722,185.902 76.0722,190.569 81.5,196C 75.3761,193.966 69.0428,192.299 62.5,191C 57.7767,190.376 53.11,190.71 48.5,192C 61.1348,191.899 73.1348,194.565 84.5,200C 86.0375,201.707 87.7041,203.207 89.5,204.5C 87.2119,208.456 84.2119,211.789 80.5,214.5C 73.3589,212.206 66.0256,211.206 58.5,211.5C 56.6916,211.491 55.0249,211.991 53.5,213C 56.4816,213.498 59.4816,213.665 62.5,213.5C 67.2999,213.35 71.9666,214.016 76.5,215.5C 75.3748,217 74.0414,218.333 72.5,219.5C 74.9414,219.25 76.9414,218.25 78.5,216.5C 78.8333,216.5 79.1667,216.5 79.5,216.5C 79.3893,217.117 79.056,217.617 78.5,218C 82.724,225.557 87.724,232.557 93.5,239C 100.074,245.122 107.741,248.789 116.5,250C 124.854,228.937 132.021,207.437 138,185.5C 138.949,183.907 140.115,182.574 141.5,181.5C 141.032,191.495 141.032,191.161 141.5,180.5C 142.604,178.611 143.937,176.945 145.5,175.5C 147.517,176.529 149.517,177.529 151.5,178.5C 150.167,176.5 148.5,174.833 146.5,173.5C 149.524,169.697 151.191,165.364 151.5,160.5C 152.553,163.608 153.886,166.608 155.5,169.5C 156.167,170.833 156.833,172.167 157.5,173.5C 159.2,175.21 160.533,177.21 161.5,179.5C 156.028,197.414 153.694,215.748 154.5,234.5C 154.5,241.833 154.5,249.167 154.5,256.5C 154.5,263.833 154.5,271.167 154.5,278.5C 154.203,285.92 154.536,293.254 155.5,300.5C 155.5,308.167 155.5,315.833 155.5,323.5C 155.986,331.158 156.32,338.825 156.5,346.5C 157.054,353.153 157.388,359.82 157.5,366.5C 156.5,366.5 155.5,366.5 154.5,366.5C 149.482,366.387 144.482,366.053 139.5,365.5C 141.161,353.224 142.161,340.891 142.5,328.5C 142.667,316.162 142.5,303.829 142,291.5C 140.354,271.521 139.187,251.521 138.5,231.5C 138.622,217.793 139.122,204.126 140,190.5C 137.509,204.886 136.342,219.386 136.5,234C 138.248,261.48 139.582,288.98 140.5,316.5C 140.862,332.554 140.195,348.554 138.5,364.5C 111.284,359.973 86.7838,349.306 65,332.5C 63.7748,327.915 63.2748,323.248 63.5,318.5C 47.6956,316.826 36.8623,308.493 31,293.5C 25.6361,279.286 23.6361,264.62 25,249.5C 28.4612,227.733 32.4612,206.066 37,184.5C 40.514,170.621 47.6807,159.121 58.5,150C 76.0105,142.205 94.3438,137.372 113.5,135.5 Z"/></g>
<g><path style="opacity:1" fill="#2c3227" d="M 197.5,143.5 C 202.623,147.961 206.623,153.294 209.5,159.5C 198.582,171.532 184.916,176.365 168.5,174C 163.795,173.323 159.628,171.49 156,168.5C 155.601,168.728 155.435,169.062 155.5,169.5C 153.886,166.608 152.553,163.608 151.5,160.5C 151.334,156.154 151.501,151.821 152,147.5C 154.833,151.667 158.333,155.167 162.5,158C 179.778,166.354 191.445,161.521 197.5,143.5 Z"/></g>
<g><path style="opacity:1" fill="#151b1b" d="M 201.5,136.5 C 214.09,149.041 222.423,163.708 226.5,180.5C 224.506,181.35 222.506,181.85 220.5,182C 223.709,180.417 224.876,177.917 224,174.5C 218.154,160.785 210.32,148.452 200.5,137.5C 200.5,136.833 200.833,136.5 201.5,136.5 Z"/></g>
<g><path style="opacity:0.986" fill="#8ec3ca" d="M 205.5,134.5 C 212.597,141.103 217.93,148.937 221.5,158C 235.327,161.494 246.827,168.66 256,179.5C 262.18,193.371 267.18,207.704 271,222.5C 272.781,231.58 273.614,240.747 273.5,250C 270.889,269.386 273.055,288.22 280,306.5C 281.33,312.452 281.663,318.452 281,324.5C 271.775,333.19 261.609,340.524 250.5,346.5C 250.175,338.981 250.508,331.648 251.5,324.5C 252.791,324.737 253.791,324.404 254.5,323.5C 260.452,322.752 266.452,322.252 272.5,322C 266.557,320.221 260.557,320.054 254.5,321.5C 254.5,321.167 254.5,320.833 254.5,320.5C 260.321,318.172 266.321,316.338 272.5,315C 264.929,313.966 258.096,315.8 252,320.5C 251.333,319.833 251.333,319.167 252,318.5C 259.119,313.76 266.952,310.926 275.5,310C 270.783,309.524 266.117,309.524 261.5,310C 264.554,307.806 267.888,306.139 271.5,305C 263.016,305.33 256.516,309.163 252,316.5C 253.89,298.486 256.223,280.486 259,262.5C 260.386,250.534 261.219,238.534 261.5,226.5C 261.66,221.434 261.16,216.434 260,211.5C 259.5,218.158 259.334,224.825 259.5,231.5C 258.53,256.454 255.364,281.121 250,305.5C 249.5,319.163 249.333,332.829 249.5,346.5C 246.696,348.405 243.696,350.071 240.5,351.5C 239.536,337.178 239.369,322.845 240,308.5C 242.481,287.881 244.481,267.214 246,246.5C 246.687,237.144 246.521,227.811 245.5,218.5C 244.669,209.176 242.502,200.176 239,191.5C 240.981,200.43 242.814,209.43 244.5,218.5C 244.666,228.839 244.5,239.172 244,249.5C 241.34,271.108 239.34,292.774 238,314.5C 236.577,283.437 234.41,252.437 231.5,221.5C 230.17,211.017 228.003,200.684 225,190.5C 226.521,201.296 228.355,211.963 230.5,222.5C 232.332,250.477 233.832,278.477 235,306.5C 235.871,321.577 237.371,336.577 239.5,351.5C 234.233,354.628 228.566,356.961 222.5,358.5C 222.073,354.176 221.739,349.842 221.5,345.5C 220.789,337.507 220.123,329.507 219.5,321.5C 219.5,314.167 219.5,306.833 219.5,299.5C 219.644,291.49 219.977,283.49 220.5,275.5C 220.5,268.833 220.5,262.167 220.5,255.5C 220.242,247.288 218.909,239.288 216.5,231.5C 214.148,222.096 211.482,212.763 208.5,203.5C 212.058,191.745 213.224,179.745 212,167.5C 211.61,164.896 210.776,162.562 209.5,160.5C 209.5,160.167 209.5,159.833 209.5,159.5C 206.623,153.294 202.623,147.961 197.5,143.5C 197.443,142.391 197.11,141.391 196.5,140.5C 197.436,139.026 198.77,138.026 200.5,137.5C 210.32,148.452 218.154,160.785 224,174.5C 224.876,177.917 223.709,180.417 220.5,182C 222.506,181.85 224.506,181.35 226.5,180.5C 222.423,163.708 214.09,149.041 201.5,136.5C 202.833,135.833 204.167,135.167 205.5,134.5 Z"/></g>
<g><path style="opacity:1" fill="#2c3227" d="M 209.5,160.5 C 210.776,162.562 211.61,164.896 212,167.5C 213.224,179.745 212.058,191.745 208.5,203.5C 211.482,212.763 214.148,222.096 216.5,231.5C 195.915,233.949 175.248,234.949 154.5,234.5C 153.694,215.748 156.028,197.414 161.5,179.5C 160.533,177.21 159.2,175.21 157.5,173.5C 172.683,178.442 187.349,177.275 201.5,170C 204.754,167.253 207.42,164.086 209.5,160.5 Z"/></g>
<g><path style="opacity:1" fill="#181e1f" d="M 107.5,183.5 C 107.167,184.5 106.5,185.167 105.5,185.5C 102.796,174.61 100.963,163.61 100,152.5C 102.609,162.824 105.109,173.157 107.5,183.5 Z"/></g>
<g><path style="opacity:1" fill="#060705" d="M 209.5,159.5 C 209.5,159.833 209.5,160.167 209.5,160.5C 207.42,164.086 204.754,167.253 201.5,170C 187.349,177.275 172.683,178.442 157.5,173.5C 156.833,172.167 156.167,170.833 155.5,169.5C 155.435,169.062 155.601,168.728 156,168.5C 159.628,171.49 163.795,173.323 168.5,174C 184.916,176.365 198.582,171.532 209.5,159.5 Z"/></g>
<g><path style="opacity:1" fill="#1e2322" d="M 146.5,173.5 C 148.5,174.833 150.167,176.5 151.5,178.5C 149.517,177.529 147.517,176.529 145.5,175.5C 145.328,174.508 145.662,173.842 146.5,173.5 Z"/></g>
<g><path style="opacity:1" fill="#121717" d="M 226.5,180.5 C 228.696,180.59 230.863,180.923 233,181.5C 234.404,181.491 235.57,180.991 236.5,180C 229.277,175.473 224.443,169.307 222,161.5C 227.006,169.006 233.173,175.339 240.5,180.5C 240.291,181.086 239.957,181.586 239.5,182C 237.667,182.167 235.833,182.333 234,182.5C 231.134,182.7 228.634,182.033 226.5,180.5 Z"/></g>
<g><path style="opacity:1" fill="#243032" d="M 151.5,178.5 C 152.756,178.461 153.756,178.961 154.5,180C 153.002,180.585 152.002,180.085 151.5,178.5 Z"/></g>
<g><path style="opacity:1" fill="#151a1a" d="M 213.5,180.5 C 218.977,185.032 219.81,190.365 216,196.5C 214.426,197.984 213.093,199.651 212,201.5C 213.431,197.621 214.598,193.621 215.5,189.5C 215.551,186.308 214.884,183.308 213.5,180.5 Z"/></g>
<g><path style="opacity:1" fill="#181e1f" d="M 91.5,202.5 C 91.1667,203.5 90.5,204.167 89.5,204.5C 87.7041,203.207 86.0375,201.707 84.5,200C 73.1348,194.565 61.1348,191.899 48.5,192C 53.11,190.71 57.7767,190.376 62.5,191C 69.0428,192.299 75.3761,193.966 81.5,196C 76.0722,190.569 70.0722,185.902 63.5,182C 62.3044,181.346 62.3044,180.846 63.5,180.5C 73.2641,184.429 81.0974,190.763 87,199.5C 87.6347,197.365 87.3014,195.365 86,193.5C 77.8697,183.036 68.703,173.536 58.5,165C 69.4204,169.909 77.9204,177.742 84,188.5C 81.7488,180.267 78.5822,172.267 74.5,164.5C 74.8457,163.304 75.3457,163.304 76,164.5C 82.2524,176.765 87.419,189.432 91.5,202.5 Z"/></g>
<g><path style="opacity:1" fill="#2a393b" d="M 141.5,180.5 C 141.032,191.161 141.032,191.495 141.5,181.5C 141.5,181.167 141.5,180.833 141.5,180.5 Z"/></g>
<g><path style="opacity:1" fill="#3b5153" d="M 148.5,190.5 C 150.722,190.559 151.722,191.725 151.5,194C 151,196.5 150.5,199 150,201.5C 149.586,201.957 149.086,202.291 148.5,202.5C 147.302,198.488 147.302,194.488 148.5,190.5 Z"/></g>
<g><path style="opacity:1" fill="#050708" d="M 216.5,199.5 C 220.473,200.075 221.473,202.242 219.5,206C 218.216,206.684 217.049,206.517 216,205.5C 215.322,203.402 215.489,201.402 216.5,199.5 Z"/></g>
<g><path style="opacity:1" fill="#2b3a3c" d="M 231.5,221.5 C 230.833,221.5 230.5,221.833 230.5,222.5C 228.355,211.963 226.521,201.296 225,190.5C 228.003,200.684 230.17,211.017 231.5,221.5 Z"/></g>
<g><path style="opacity:1" fill="#0f1111" d="M 58.5,211.5 C 66.0256,211.206 73.3589,212.206 80.5,214.5C 80.6716,215.492 80.3382,216.158 79.5,216.5C 79.1667,216.5 78.8333,216.5 78.5,216.5C 78.1583,215.662 77.4916,215.328 76.5,215.5C 71.9666,214.016 67.2999,213.35 62.5,213.5C 61.1667,212.833 59.8333,212.167 58.5,211.5 Z"/></g>
<g><path style="opacity:1" fill="#496669" d="M 58.5,211.5 C 59.8333,212.167 61.1667,212.833 62.5,213.5C 59.4816,213.665 56.4816,213.498 53.5,213C 55.0249,211.991 56.6916,211.491 58.5,211.5 Z"/></g>
<g><path style="opacity:1" fill="#2e3f41" d="M 245.5,218.5 C 245.167,218.5 244.833,218.5 244.5,218.5C 242.814,209.43 240.981,200.43 239,191.5C 242.502,200.176 244.669,209.176 245.5,218.5 Z"/></g>
<g><path style="opacity:1" fill="#496568" d="M 261.5,226.5 C 260.833,228.167 260.167,229.833 259.5,231.5C 259.334,224.825 259.5,218.158 260,211.5C 261.16,216.434 261.66,221.434 261.5,226.5 Z"/></g>
<g><path style="opacity:1" fill="#425a5d" d="M 76.5,215.5 C 77.4916,215.328 78.1583,215.662 78.5,216.5C 76.9414,218.25 74.9414,219.25 72.5,219.5C 74.0414,218.333 75.3748,217 76.5,215.5 Z"/></g>
<g><path style="opacity:1" fill="#131819" d="M 142.5,328.5 C 141.833,324.5 141.167,320.5 140.5,316.5C 139.582,288.98 138.248,261.48 136.5,234C 136.342,219.386 137.509,204.886 140,190.5C 139.122,204.126 138.622,217.793 138.5,231.5C 139.187,251.521 140.354,271.521 142,291.5C 142.5,303.829 142.667,316.162 142.5,328.5 Z"/></g>
<g><path style="opacity:1" fill="#14191a" d="M 244.5,218.5 C 244.833,218.5 245.167,218.5 245.5,218.5C 246.521,227.811 246.687,237.144 246,246.5C 244.481,267.214 242.481,287.881 240,308.5C 239.369,322.845 239.536,337.178 240.5,351.5C 240.167,351.5 239.833,351.5 239.5,351.5C 237.371,336.577 235.871,321.577 235,306.5C 233.832,278.477 232.332,250.477 230.5,222.5C 230.5,221.833 230.833,221.5 231.5,221.5C 234.41,252.437 236.577,283.437 238,314.5C 239.34,292.774 241.34,271.108 244,249.5C 244.5,239.172 244.666,228.839 244.5,218.5 Z"/></g>
<g><path style="opacity:1" fill="#fde0cb" d="M 216.5,231.5 C 218.909,239.288 220.242,247.288 220.5,255.5C 198.526,257.633 176.526,257.966 154.5,256.5C 154.5,249.167 154.5,241.833 154.5,234.5C 175.248,234.949 195.915,233.949 216.5,231.5 Z"/></g>
<g><path style="opacity:1" fill="#2b393b" d="M 144.5,237.5 C 145.794,239.048 146.461,241.048 146.5,243.5C 145.765,252.429 144.765,252.595 143.5,244C 143.566,241.745 143.899,239.578 144.5,237.5 Z"/></g>
<g><path style="opacity:1" fill="#131818" d="M 261.5,226.5 C 261.219,238.534 260.386,250.534 259,262.5C 256.223,280.486 253.89,298.486 252,316.5C 256.516,309.163 263.016,305.33 271.5,305C 267.888,306.139 264.554,307.806 261.5,310C 266.117,309.524 270.783,309.524 275.5,310C 266.952,310.926 259.119,313.76 252,318.5C 251.333,319.167 251.333,319.833 252,320.5C 258.096,315.8 264.929,313.966 272.5,315C 266.321,316.338 260.321,318.172 254.5,320.5C 251.693,320.951 250.693,322.285 251.5,324.5C 250.508,331.648 250.175,338.981 250.5,346.5C 250.167,346.5 249.833,346.5 249.5,346.5C 249.333,332.829 249.5,319.163 250,305.5C 255.364,281.121 258.53,256.454 259.5,231.5C 260.167,229.833 260.833,228.167 261.5,226.5 Z"/></g>
<g><path style="opacity:1" fill="#161c1d" d="M 72.5,219.5 C 71.554,221.89 70.2206,224.056 68.5,226C 64.3187,227.513 60.6521,229.846 57.5,233C 58.5822,234.33 59.2488,235.83 59.5,237.5C 58.4157,236.026 57.0824,235.193 55.5,235C 51.8735,237.251 50.7069,240.418 52,244.5C 53.2678,249.637 54.9344,254.637 57,259.5C 60.8259,266.845 64.8259,273.845 69,280.5C 58.1329,269.765 51.7996,256.765 50,241.5C 42.5615,250.469 38.2282,260.802 37,272.5C 36.3933,268.463 36.56,264.463 37.5,260.5C 38.905,258.775 39.405,256.775 39,254.5C 38.0617,256.488 37.2283,258.488 36.5,260.5C 34.8519,269.718 34.0185,279.052 34,288.5C 31.5896,277.629 32.2563,266.962 36,256.5C 41.6667,248.833 47.3333,241.167 53,233.5C 59.5425,228.669 66.0425,224.002 72.5,219.5 Z"/></g>
<g><path style="opacity:1" fill="#101414" d="M 225.5,250.5 C 229.976,250.8 231.31,252.967 229.5,257C 227.888,257.72 226.388,257.554 225,256.5C 224.51,254.455 224.677,252.455 225.5,250.5 Z"/></g>
<g><path style="opacity:1" fill="#2e3428" d="M 220.5,255.5 C 220.5,262.167 220.5,268.833 220.5,275.5C 198.561,277.64 176.561,278.64 154.5,278.5C 154.5,271.167 154.5,263.833 154.5,256.5C 176.526,257.966 198.526,257.633 220.5,255.5 Z"/></g>
<g><path style="opacity:1" fill="#111616" d="M 59.5,237.5 C 65.8864,246.064 72.8864,254.23 80.5,262C 87.0715,267.561 94.4049,271.894 102.5,275C 101.167,275.667 99.8333,275.667 98.5,275C 80.7368,267.403 67.7368,254.903 59.5,237.5 Z"/></g>
<g><path style="opacity:1" fill="#466164" d="M 37.5,260.5 C 37.1667,260.5 36.8333,260.5 36.5,260.5C 37.2283,258.488 38.0617,256.488 39,254.5C 39.405,256.775 38.905,258.775 37.5,260.5 Z"/></g>
<g><path style="opacity:1" fill="#fddfcb" d="M 220.5,275.5 C 219.977,283.49 219.644,291.49 219.5,299.5C 198.2,301.699 176.867,302.032 155.5,300.5C 154.536,293.254 154.203,285.92 154.5,278.5C 176.561,278.64 198.561,277.64 220.5,275.5 Z"/></g>
<g><path style="opacity:1" fill="#171d1e" d="M 270.5,270.5 C 270.518,281.289 267.352,291.289 261,300.5C 264.434,290.694 267.6,280.694 270.5,270.5 Z"/></g>
<g><path style="opacity:1" fill="#131818" d="M 71.5,312.5 C 82.3978,304.439 92.2311,295.106 101,284.5C 107.537,274.231 112.537,263.231 116,251.5C 111.402,279.387 96.5682,299.72 71.5,312.5 Z"/></g>
<g><path style="opacity:1" fill="#4b676b" d="M 149.5,301.5 C 148.698,302.952 148.198,304.618 148,306.5C 147.909,303.984 147.409,302.318 146.5,301.5C 145.06,299.58 145.393,297.913 147.5,296.5C 148.95,297.85 149.617,299.516 149.5,301.5 Z"/></g>
<g><path style="opacity:1" fill="#2d3328" d="M 219.5,299.5 C 219.5,306.833 219.5,314.167 219.5,321.5C 198.207,323.174 176.874,323.84 155.5,323.5C 155.5,315.833 155.5,308.167 155.5,300.5C 176.867,302.032 198.2,301.699 219.5,299.5 Z"/></g>
<g><path style="opacity:1" fill="#101414" d="M 227.5,305.5 C 231.976,305.8 233.31,307.967 231.5,312C 229.888,312.72 228.388,312.554 227,311.5C 226.51,309.455 226.677,307.455 227.5,305.5 Z"/></g>
<g><path style="opacity:1" fill="#1c2526" d="M 149.5,301.5 C 149.808,303.924 149.474,306.257 148.5,308.5C 147.914,308.291 147.414,307.957 147,307.5C 146.505,305.527 146.338,303.527 146.5,301.5C 147.409,302.318 147.909,303.984 148,306.5C 148.198,304.618 148.698,302.952 149.5,301.5 Z"/></g>
<g><path style="opacity:1" fill="#394f51" d="M 71.5,312.5 C 70.7456,314.446 69.4122,315.279 67.5,315C 68.4709,313.519 69.8042,312.685 71.5,312.5 Z"/></g>
<g><path style="opacity:1" fill="#283739" d="M 140.5,316.5 C 141.167,320.5 141.833,324.5 142.5,328.5C 142.161,340.891 141.161,353.224 139.5,365.5C 138.833,365.5 138.5,365.167 138.5,364.5C 140.195,348.554 140.862,332.554 140.5,316.5 Z"/></g>
<g><path style="opacity:1" fill="#0a0e0e" d="M 254.5,323.5 C 253.761,323.631 253.094,323.464 252.5,323C 253.416,322.722 254.082,322.222 254.5,321.5C 260.557,320.054 266.557,320.221 272.5,322C 266.452,322.252 260.452,322.752 254.5,323.5 Z"/></g>
<g><path style="opacity:1" fill="#fbdec9" d="M 219.5,321.5 C 220.123,329.507 220.789,337.507 221.5,345.5C 199.867,347.711 178.201,348.044 156.5,346.5C 156.32,338.825 155.986,331.158 155.5,323.5C 176.874,323.84 198.207,323.174 219.5,321.5 Z"/></g>
<g><path style="opacity:1" fill="#476265" d="M 254.5,320.5 C 254.5,320.833 254.5,321.167 254.5,321.5C 254.082,322.222 253.416,322.722 252.5,323C 253.094,323.464 253.761,323.631 254.5,323.5C 253.791,324.404 252.791,324.737 251.5,324.5C 250.693,322.285 251.693,320.951 254.5,320.5 Z"/></g>
<g><path style="opacity:0.975" fill="#2c3227" d="M 221.5,345.5 C 221.739,349.842 222.073,354.176 222.5,358.5C 209.497,363.034 196.164,366.034 182.5,367.5C 173.167,367.5 163.833,367.5 154.5,367.5C 154.5,367.167 154.5,366.833 154.5,366.5C 155.5,366.5 156.5,366.5 157.5,366.5C 157.388,359.82 157.054,353.153 156.5,346.5C 178.201,348.044 199.867,347.711 221.5,345.5 Z"/></g>
<g><path style="opacity:1" fill="#4b676b" d="M 151.5,351.5 C 150.698,352.952 150.198,354.618 150,356.5C 149.909,353.984 149.409,352.318 148.5,351.5C 147.06,349.58 147.393,347.913 149.5,346.5C 150.95,347.85 151.617,349.516 151.5,351.5 Z"/></g>
<g><path style="opacity:1" fill="#1c2526" d="M 151.5,351.5 C 151.808,353.924 151.474,356.257 150.5,358.5C 149.914,358.291 149.414,357.957 149,357.5C 148.505,355.527 148.338,353.527 148.5,351.5C 149.409,352.318 149.909,353.984 150,356.5C 150.198,354.618 150.698,352.952 151.5,351.5 Z"/></g>
</svg>
