<?xml version="1.0" encoding="UTF-8"?>
<!DOCTYPE svg PUBLIC "-//W3C//DTD SVG 1.1//EN" "http://www.w3.org/Graphics/SVG/1.1/DTD/svg11.dtd">
<svg xmlns="http://www.w3.org/2000/svg" version="1.1" width="512px" height="512px" style="shape-rendering:geometricPrecision; text-rendering:geometricPrecision; image-rendering:optimizeQuality; fill-rule:evenodd; clip-rule:evenodd" xmlns:xlink="http://www.w3.org/1999/xlink">
<g><path style="opacity:0.993" fill="#e50101" d="M 421.5,27.5 C 422.641,28.339 423.974,29.0057 425.5,29.5C 426.107,29.3764 426.44,29.0431 426.5,28.5C 431.921,29.1959 436.921,30.8626 441.5,33.5C 443.426,35.2927 445.759,36.2927 448.5,36.5C 448.833,36.5 449.167,36.5 449.5,36.5C 450.382,38.3838 451.882,39.7171 454,40.5C 454.399,40.2716 454.565,39.9382 454.5,39.5C 460.049,42.0563 465.049,45.3897 469.5,49.5C 469.062,49.4346 468.728,49.6012 468.5,50C 469.789,51.8022 471.456,52.9688 473.5,53.5C 476.5,55.8333 479.167,58.5 481.5,61.5C 481.427,63.0269 482.094,64.0269 483.5,64.5C 485.482,67.8103 487.815,70.8103 490.5,73.5C 494.512,78.182 497.512,83.5154 499.5,89.5C 498.535,90.7211 498.702,92.0544 500,93.5C 500.399,93.2716 500.565,92.9382 500.5,92.5C 507.496,110.859 509.329,129.859 506,149.5C 505.253,154.843 503.753,159.843 501.5,164.5C 499.853,167.729 498.186,171.063 496.5,174.5C 496.624,175.107 496.957,175.44 497.5,175.5C 497.5,176.167 497.167,176.5 496.5,176.5C 494.442,178.927 492.609,181.593 491,184.5C 490.308,185.437 490.475,186.103 491.5,186.5C 487.894,192.438 483.561,197.771 478.5,202.5C 478.565,202.062 478.399,201.728 478,201.5C 476.198,202.789 475.031,204.456 474.5,206.5C 473.421,208.543 471.754,209.876 469.5,210.5C 468.761,210.369 468.094,210.536 467.5,211C 466.262,211.69 466.262,212.19 467.5,212.5C 464.35,215.579 460.683,217.913 456.5,219.5C 454.378,219.626 453.378,220.293 453.5,221.5C 457.571,222.177 461.571,223.177 465.5,224.5C 466.78,225.931 468.447,226.598 470.5,226.5C 473.331,227.079 475.664,228.412 477.5,230.5C 477.062,230.435 476.728,230.601 476.5,231C 477.471,232.481 478.804,233.315 480.5,233.5C 489.104,241.315 492.771,250.982 491.5,262.5C 490.419,265.627 489.753,268.96 489.5,272.5C 488.824,276.187 487.324,279.52 485,282.5C 481.833,285.667 478.667,288.833 475.5,292C 489.323,302.128 494.489,315.628 491,332.5C 489.957,336.915 488.124,340.915 485.5,344.5C 483.5,344.5 482.5,345.5 482.5,347.5C 480.372,350.13 478.039,352.63 475.5,355C 476.416,355.278 477.082,355.778 477.5,356.5C 477.062,356.435 476.728,356.601 476.5,357C 479,359.5 481.5,362 484,364.5C 484.399,364.272 484.565,363.938 484.5,363.5C 486.153,366.131 487.819,368.797 489.5,371.5C 488.147,373.128 488.481,374.462 490.5,375.5C 493.694,387.488 491.694,398.488 484.5,408.5C 484.565,408.062 484.399,407.728 484,407.5C 482.961,408.244 482.461,409.244 482.5,410.5C 480.4,413.104 478.067,415.604 475.5,418C 487.509,426.178 492.842,437.344 491.5,451.5C 490.734,453.684 490.067,456.018 489.5,458.5C 489.624,459.107 489.957,459.44 490.5,459.5C 486.128,473.529 476.794,482.362 462.5,486C 316.833,486.667 171.167,486.667 25.5,486C 18.4718,484.337 13.1384,480.504 9.5,474.5C 9.05371,471.811 8.05371,470.144 6.5,469.5C 0.769886,451.284 6.76989,438.284 24.5,430.5C 25.3332,396.505 25.8332,362.505 26,328.5C 27.809,304.579 35.9757,283.245 50.5,264.5C 50.4346,264.938 50.6012,265.272 51,265.5C 52.0386,264.756 52.5386,263.756 52.5,262.5C 56.1047,257.226 60.438,252.559 65.5,248.5C 67.5441,247.969 69.2107,246.802 70.5,245C 70.2716,244.601 69.9382,244.435 69.5,244.5C 74.2783,240.06 79.6117,236.393 85.5,233.5C 85.4346,233.938 85.6012,234.272 86,234.5C 87.417,233.922 88.2504,232.922 88.5,231.5C 100.076,225.139 112.41,220.639 125.5,218C 121.514,211.061 121.514,204.228 125.5,197.5C 127.262,196.738 128.262,195.404 128.5,193.5C 118.159,177.906 121.159,165.572 137.5,156.5C 137.642,153.523 136.975,151.523 135.5,150.5C 130.021,133.889 125.021,117.056 120.5,100C 123.534,83.3013 133.534,73.6347 150.5,71C 180.832,70.5 211.165,70.3334 241.5,70.5C 244.089,72.1573 246.756,72.4906 249.5,71.5C 251.306,72.0241 252.972,72.6908 254.5,73.5C 254.062,73.4346 253.728,73.6012 253.5,74C 255.081,74.7065 256.581,75.5399 258,76.5C 258.399,76.2716 258.565,75.9382 258.5,75.5C 262.704,77.0332 266.037,79.6998 268.5,83.5C 268.738,85.4044 269.738,86.7377 271.5,87.5C 273.885,90.8502 275.218,94.6835 275.5,99C 272.021,113.101 268.021,126.935 263.5,140.5C 261.655,141.995 261.322,143.662 262.5,145.5C 261.542,149.379 260.209,153.045 258.5,156.5C 257.466,158.817 258.466,159.817 261.5,159.5C 263.153,159.66 264.486,160.326 265.5,161.5C 265.369,162.239 265.536,162.906 266,163.5C 266.69,164.738 267.19,164.738 267.5,163.5C 271.721,167.308 273.721,172.141 273.5,178C 273.428,183.549 271.762,188.549 268.5,193C 273.868,200.558 274.868,208.725 271.5,217.5C 279.914,220.027 288.247,222.86 296.5,226C 301.887,228.354 306.887,231.188 311.5,234.5C 313.886,237.04 316.719,239.04 320,240.5C 322.382,239.256 324.215,237.423 325.5,235C 325.272,234.601 324.938,234.435 324.5,234.5C 324.833,233.5 325.5,232.833 326.5,232.5C 326.435,232.938 326.601,233.272 327,233.5C 329.906,230.963 333.073,228.796 336.5,227C 336.272,226.601 335.938,226.435 335.5,226.5C 341.038,223.686 347.038,222.186 353.5,222C 348.721,219.697 344.387,216.864 340.5,213.5C 340.938,213.565 341.272,213.399 341.5,213C 340.756,211.961 339.756,211.461 338.5,211.5C 326.583,203.253 317.583,192.586 311.5,179.5C 311.938,179.565 312.272,179.399 312.5,179C 311.353,176.313 310.02,174.479 308.5,173.5C 307.662,173.158 307.328,172.492 307.5,171.5C 307.938,171.565 308.272,171.399 308.5,171C 307.771,168.942 306.771,167.109 305.5,165.5C 300.95,154.249 298.617,142.416 298.5,130C 298.787,121.195 300.12,112.695 302.5,104.5C 304.242,100.456 305.909,96.2893 307.5,92C 307.272,91.6012 306.938,91.4346 306.5,91.5C 307.735,86.7881 309.735,82.4547 312.5,78.5C 313.376,78.6309 314.043,78.2975 314.5,77.5C 315.55,76.5712 315.55,75.9046 314.5,75.5C 316.265,72.2911 318.265,69.2911 320.5,66.5C 320.435,66.9382 320.601,67.2716 321,67.5C 322.802,66.2107 323.969,64.5441 324.5,62.5C 325.08,60.2512 326.413,58.5846 328.5,57.5C 330.5,57.5 331.5,56.5 331.5,54.5C 344.842,41.2104 360.842,32.5437 379.5,28.5C 379.735,29.0967 380.235,29.4301 381,29.5C 385.007,28.6727 388.84,27.6727 392.5,26.5C 402.227,25.171 411.893,25.5044 421.5,27.5 Z M 413.5,38.5 C 416.054,39.388 418.721,39.7214 421.5,39.5C 426.464,40.9979 431.464,42.6646 436.5,44.5C 437.391,45.1098 438.391,45.4431 439.5,45.5C 443.327,47.246 446.993,49.246 450.5,51.5C 452.001,52.7515 453.668,53.7515 455.5,54.5C 455.842,55.3382 456.508,55.6716 457.5,55.5C 457.833,56.5 458.5,57.1667 459.5,57.5C 464.474,62.1387 469.474,66.8053 474.5,71.5C 476.934,75.3817 479.601,79.0484 482.5,82.5C 482.992,84.8185 483.992,86.8185 485.5,88.5C 495.478,109.327 497.811,130.994 492.5,153.5C 491.766,154.708 491.433,156.041 491.5,157.5C 490.216,160.402 489.216,163.402 488.5,166.5C 486.326,169.515 484.659,172.849 483.5,176.5C 481.75,177.659 480.75,179.326 480.5,181.5C 479.5,181.833 478.833,182.5 478.5,183.5C 475.936,186.28 473.603,189.28 471.5,192.5C 469.833,193.5 468.5,194.833 467.5,196.5C 462.941,199.939 458.608,203.606 454.5,207.5C 452.326,207.75 450.659,208.75 449.5,210.5C 447.181,210.992 445.181,211.992 443.5,213.5C 410.713,227.568 379.379,224.901 349.5,205.5C 349.167,204.5 348.5,203.833 347.5,203.5C 341.219,198.852 335.552,193.519 330.5,187.5C 330.262,185.596 329.262,184.262 327.5,183.5C 312.499,160.169 307.832,134.836 313.5,107.5C 315.405,103.784 316.739,99.7843 317.5,95.5C 318.167,95.5 318.5,95.1667 318.5,94.5C 319.11,93.609 319.443,92.609 319.5,91.5C 322.825,85.8383 326.159,80.1716 329.5,74.5C 330.5,74.1667 331.167,73.5 331.5,72.5C 352.945,47.4573 380.278,36.1239 413.5,38.5 Z M 419.5,64.5 C 422.215,66.0719 425.215,67.0719 428.5,67.5C 432.666,70.0841 437,72.4174 441.5,74.5C 441.973,75.9063 442.973,76.573 444.5,76.5C 449.528,81.8595 454.528,87.1929 459.5,92.5C 467.705,106.323 471.372,121.323 470.5,137.5C 469.622,140.761 468.956,144.094 468.5,147.5C 467.304,150.421 466.304,153.421 465.5,156.5C 464.596,157.209 464.263,158.209 464.5,159.5C 461.503,164.159 458.503,168.825 455.5,173.5C 454.167,174.167 453.167,175.167 452.5,176.5C 450.5,177.833 448.833,179.5 447.5,181.5C 419.782,201.854 391.448,202.687 362.5,184C 354.799,177.481 348.466,169.981 343.5,161.5C 342.5,158.833 341.5,156.167 340.5,153.5C 333.979,134.961 334.979,116.627 343.5,98.5C 345.316,96.8816 346.649,94.8816 347.5,92.5C 351.127,87.2056 355.46,82.539 360.5,78.5C 361.833,77.8333 362.833,76.8333 363.5,75.5C 380.595,64.4147 399.261,60.7481 419.5,64.5 Z M 252.5,136.5 C 251.566,137.568 251.232,138.901 251.5,140.5C 249.436,145.883 247.436,151.383 245.5,157C 237.812,157.831 230.145,157.665 222.5,156.5C 223.246,155.264 223.579,153.93 223.5,152.5C 224.234,151.292 224.567,149.959 224.5,148.5C 227.439,140.625 231.439,133.292 236.5,126.5C 238.539,125.089 239.539,123.089 239.5,120.5C 238.301,116.559 235.968,114.892 232.5,115.5C 228.945,116.054 226.612,118.054 225.5,121.5C 224.833,121.5 224.5,121.833 224.5,122.5C 222.75,123.659 221.75,125.326 221.5,127.5C 218.742,130.678 216.742,134.345 215.5,138.5C 212.448,144.371 210.781,150.704 210.5,157.5C 202.493,157.666 194.493,157.5 186.5,157C 185.663,155.989 185.33,154.822 185.5,153.5C 184.804,148.079 183.137,143.079 180.5,138.5C 178.192,131.879 174.858,125.879 170.5,120.5C 170.167,119.5 169.5,118.833 168.5,118.5C 168.047,117.542 167.381,116.708 166.5,116C 163.961,115.204 161.628,115.371 159.5,116.5C 157.896,117.287 157.229,118.62 157.5,120.5C 157.372,122.655 157.872,124.655 159,126.5C 161.385,129.379 163.552,132.379 165.5,135.5C 166.596,138.032 167.929,140.365 169.5,142.5C 170.129,145.397 171.129,148.064 172.5,150.5C 172.674,152.861 173.007,155.194 173.5,157.5C 165.833,157.5 158.167,157.5 150.5,157.5C 147.306,147.035 143.973,136.702 140.5,126.5C 139.91,122.397 138.91,118.397 137.5,114.5C 135.661,109.48 134.328,104.314 133.5,99C 133.542,97.0326 134.042,95.1992 135,93.5C 136.707,91.9625 138.207,90.2959 139.5,88.5C 140.5,88.1667 141.167,87.5 141.5,86.5C 143.812,85.6805 146.146,84.8471 148.5,84C 182.56,83.0208 216.56,83.3542 250.5,85C 257.236,87.6734 261.236,92.5067 262.5,99.5C 259.165,111.837 255.832,124.17 252.5,136.5 Z M 395.5,96.5 C 397.47,104.769 398.136,113.435 397.5,122.5C 395.246,121.585 393.246,120.252 391.5,118.5C 390.737,116.632 389.737,114.965 388.5,113.5C 387.849,106.483 390.183,100.817 395.5,96.5 Z M 410.5,138.5 C 418.652,144.446 420.152,151.779 415,160.5C 413.568,162.439 411.735,163.772 409.5,164.5C 409.174,155.651 409.507,146.984 410.5,138.5 Z M 138.5,185.5 C 137.154,183.463 135.82,181.463 134.5,179.5C 134.392,174.979 136.392,171.812 140.5,170C 178.833,169.333 217.167,169.333 255.5,170C 263.35,175.288 263.35,180.621 255.5,186C 216.459,186.821 177.459,186.655 138.5,185.5 Z M 253.5,199.5 C 255.685,199.704 257.685,200.37 259.5,201.5C 262.814,208.04 261.148,212.873 254.5,216C 216.833,216.667 179.167,216.667 141.5,216C 139.677,215.003 138.01,213.836 136.5,212.5C 135.637,210.579 134.971,208.579 134.5,206.5C 136.094,202.413 139.094,199.913 143.5,199C 180.238,198.174 216.905,198.34 253.5,199.5 Z M 299.5,241.5 C 300.833,242.167 302.167,242.833 303.5,243.5C 304.605,244.6 305.938,245.267 307.5,245.5C 308.436,246.974 309.77,247.974 311.5,248.5C 313.118,249.451 314.451,250.784 315.5,252.5C 313.276,264.271 315.776,274.938 323,284.5C 325.086,287.094 327.586,289.094 330.5,290.5C 330.267,292.062 329.6,293.395 328.5,294.5C 325.833,295.167 324.167,296.833 323.5,299.5C 321.738,300.262 320.738,301.596 320.5,303.5C 318.896,304.287 318.229,305.62 318.5,307.5C 317.13,309.25 316.13,311.25 315.5,313.5C 313.73,321.506 314.397,329.173 317.5,336.5C 317.263,337.791 317.596,338.791 318.5,339.5C 320.993,345.665 324.993,350.665 330.5,354.5C 322.474,360.541 317.474,368.541 315.5,378.5C 314.612,381.054 314.279,383.721 314.5,386.5C 314.603,392.245 315.936,397.578 318.5,402.5C 318.328,403.492 318.662,404.158 319.5,404.5C 322.076,409.744 325.743,414.077 330.5,417.5C 326.485,420.516 323.152,424.183 320.5,428.5C 226.169,429.5 131.836,429.833 37.5,429.5C 37.1016,394.148 37.6016,358.814 39,323.5C 40.056,316.385 41.556,309.385 43.5,302.5C 45.0198,300.11 46.0198,297.443 46.5,294.5C 48.0075,292.819 49.0075,290.819 49.5,288.5C 51.0075,286.819 52.0075,284.819 52.5,282.5C 57.0864,276.067 61.9197,269.734 67,263.5C 72.6955,258.634 78.1955,253.634 83.5,248.5C 85.0269,248.573 86.0269,247.906 86.5,246.5C 102.087,236.803 119.087,230.97 137.5,229C 177.833,228.333 218.167,228.333 258.5,229C 273.01,230.542 286.677,234.709 299.5,241.5 Z M 469.5,239.5 C 471.862,242.192 474.196,244.859 476.5,247.5C 478.526,251.581 479.526,255.915 479.5,260.5C 479.425,263.206 479.092,265.873 478.5,268.5C 476.899,271.124 475.232,273.79 473.5,276.5C 471.5,277.833 469.833,279.5 468.5,281.5C 465.284,282.938 461.951,284.105 458.5,285C 421.833,285.667 385.167,285.667 348.5,285C 332.082,280.344 325.082,269.51 327.5,252.5C 328.674,251.486 329.34,250.153 329.5,248.5C 333.961,241.564 340.295,237.064 348.5,235C 384.833,234.333 421.167,234.333 457.5,235C 461.789,235.817 465.789,237.317 469.5,239.5 Z M 204.5,258.5 C 207.455,259.159 210.455,259.492 213.5,259.5C 216.619,260.87 219.952,261.87 223.5,262.5C 224.514,263.674 225.847,264.34 227.5,264.5C 263.819,285.111 275.819,315.444 263.5,355.5C 262.5,358.167 261.5,360.833 260.5,363.5C 258.336,365.822 256.669,368.489 255.5,371.5C 253.086,372.911 251.419,374.911 250.5,377.5C 228.173,398.902 202.173,404.902 172.5,395.5C 171.791,394.596 170.791,394.263 169.5,394.5C 158.01,388.674 148.343,380.674 140.5,370.5C 140.167,369.5 139.5,368.833 138.5,368.5C 128.365,351.819 125.031,333.819 128.5,314.5C 129.697,310.905 130.697,307.239 131.5,303.5C 145.803,272.579 170.136,257.579 204.5,258.5 Z M 190.5,292.5 C 191.658,301.991 191.825,311.658 191,321.5C 182.871,316.11 180.538,308.777 184,299.5C 185.694,296.642 187.861,294.309 190.5,292.5 Z M 463.5,299.5 C 465.05,300.441 466.716,301.107 468.5,301.5C 469.833,303.5 471.5,305.167 473.5,306.5C 473.833,307.5 474.5,308.167 475.5,308.5C 483.896,327.831 478.229,340.998 458.5,348C 421.833,348.667 385.167,348.667 348.5,348C 341.733,346.718 336.066,343.551 331.5,338.5C 331.443,337.391 331.11,336.391 330.5,335.5C 323.503,318.977 328.17,306.81 344.5,299C 364.126,297.864 383.792,297.364 403.5,297.5C 421.5,297.667 439.5,297.833 457.5,298C 459.518,298.505 461.518,299.005 463.5,299.5 Z M 209.5,362.5 C 208.5,362.833 207.833,363.5 207.5,364.5C 206.504,364.414 205.671,364.748 205,365.5C 204.168,356.149 204.335,346.816 205.5,337.5C 212.573,341.863 215.073,348.197 213,356.5C 212.074,358.692 210.907,360.692 209.5,362.5 Z M 465.5,363.5 C 466.391,364.11 467.391,364.443 468.5,364.5C 469.833,366.5 471.5,368.167 473.5,369.5C 475.692,372.55 477.358,375.883 478.5,379.5C 480.888,390.337 477.888,399.337 469.5,406.5C 468.29,406.932 467.29,407.599 466.5,408.5C 463.946,409.606 461.279,410.439 458.5,411C 421.5,411.667 384.5,411.667 347.5,411C 343.085,409.957 339.085,408.124 335.5,405.5C 335.167,404.5 334.5,403.833 333.5,403.5C 322.16,385.7 325.827,371.867 344.5,362C 382.128,360.365 419.795,360.031 457.5,361C 460.292,361.542 462.958,362.376 465.5,363.5 Z M 460.5,424.5 C 464.615,425.723 468.282,427.723 471.5,430.5C 480.446,440.245 481.779,450.911 475.5,462.5C 475.167,463.167 474.833,463.833 474.5,464.5C 470.312,469.434 464.979,472.6 458.5,474C 421.5,474.667 384.5,474.667 347.5,474C 343.574,472.973 339.907,471.473 336.5,469.5C 335.167,467.5 333.5,465.833 331.5,464.5C 331.573,462.973 330.906,461.973 329.5,461.5C 329.598,459.447 328.931,457.78 327.5,456.5C 325.181,441.634 330.848,431.134 344.5,425C 364.126,423.864 383.792,423.364 403.5,423.5C 422.53,423.519 441.53,423.852 460.5,424.5 Z M 320.5,468.5 C 320.427,470.027 321.094,471.027 322.5,471.5C 322.557,472.609 322.89,473.609 323.5,474.5C 225.5,474.5 127.5,474.5 29.5,474.5C 29.1667,474.5 28.8333,474.5 28.5,474.5C 25.3649,472.761 22.3649,470.761 19.5,468.5C 13.2357,454.528 17.569,445.695 32.5,442C 126.835,441.167 221.168,441.333 315.5,442.5C 313.381,452.002 315.048,460.669 320.5,468.5 Z"/></g>
<g><path style="opacity:0.992" fill="#a30203" d="M 392.5,26.5 C 388.84,27.6727 385.007,28.6727 381,29.5C 380.235,29.4301 379.735,29.0967 379.5,28.5C 383.743,27.3187 388.076,26.652 392.5,26.5 Z"/></g>
<g><path style="opacity:0.957" fill="#660505" d="M 421.5,27.5 C 423.292,27.366 424.958,27.6993 426.5,28.5C 426.44,29.0431 426.107,29.3764 425.5,29.5C 423.974,29.0057 422.641,28.339 421.5,27.5 Z"/></g>
<g><path style="opacity:0.106" fill="#6e0403" d="M 441.5,33.5 C 444.241,33.7073 446.574,34.7073 448.5,36.5C 445.759,36.2927 443.426,35.2927 441.5,33.5 Z"/></g>
<g><path style="opacity:0.243" fill="#7c0403" d="M 413.5,38.5 C 413.56,37.9569 413.893,37.6236 414.5,37.5C 416.982,38.0671 419.316,38.7337 421.5,39.5C 418.721,39.7214 416.054,39.388 413.5,38.5 Z"/></g>
<g><path style="opacity:0.984" fill="#8c0406" d="M 449.5,36.5 C 451.368,37.2632 453.035,38.2632 454.5,39.5C 454.565,39.9382 454.399,40.2716 454,40.5C 451.882,39.7171 450.382,38.3838 449.5,36.5 Z"/></g>
<g><path style="opacity:0.945" fill="#4f0602" d="M 436.5,44.5 C 437.779,43.2848 438.779,43.6182 439.5,45.5C 438.391,45.4431 437.391,45.1098 436.5,44.5 Z"/></g>
<g><path style="opacity:0.997" fill="#e40101" d="M 461.5,76.5 C 462.419,79.0892 464.086,81.0892 466.5,82.5C 472.316,89.1297 476.316,96.7964 478.5,105.5C 478.41,108.152 479.076,110.485 480.5,112.5C 486.191,136.713 481.524,158.713 466.5,178.5C 466.565,178.062 466.399,177.728 466,177.5C 464.961,178.244 464.461,179.244 464.5,180.5C 463.92,182.749 462.587,184.415 460.5,185.5C 459.167,185.5 458.5,186.167 458.5,187.5C 457.109,189.89 455.109,191.557 452.5,192.5C 451.242,191.984 450.242,192.65 449.5,194.5C 449.027,195.906 448.027,196.573 446.5,196.5C 444.973,196.427 443.973,197.094 443.5,198.5C 435.143,204.235 425.81,207.735 415.5,209C 407.5,209.667 399.5,209.667 391.5,209C 384.745,208.232 378.411,206.399 372.5,203.5C 369.794,200.953 366.128,198.953 361.5,197.5C 337.105,182.041 324.439,159.708 323.5,130.5C 323.725,123.758 324.558,117.091 326,110.5C 326.505,107.135 327.672,104.135 329.5,101.5C 332.389,96.0649 335.555,90.7315 339,85.5C 339.692,84.5632 339.525,83.8966 338.5,83.5C 339.5,81.8333 340.833,80.5 342.5,79.5C 344.35,78.7582 345.016,77.7582 344.5,76.5C 370.474,50.5953 400.808,44.0953 435.5,57C 445.765,61.4402 454.432,67.9402 461.5,76.5 Z M 419.5,64.5 C 422.215,66.0719 425.215,67.0719 428.5,67.5C 432.666,70.0841 437,72.4174 441.5,74.5C 441.973,75.9063 442.973,76.573 444.5,76.5C 449.528,81.8595 454.528,87.1929 459.5,92.5C 467.705,106.323 471.372,121.323 470.5,137.5C 469.622,140.761 468.956,144.094 468.5,147.5C 467.304,150.421 466.304,153.421 465.5,156.5C 464.596,157.209 464.263,158.209 464.5,159.5C 461.503,164.159 458.503,168.825 455.5,173.5C 454.167,174.167 453.167,175.167 452.5,176.5C 450.5,177.833 448.833,179.5 447.5,181.5C 419.782,201.854 391.448,202.687 362.5,184C 354.799,177.481 348.466,169.981 343.5,161.5C 342.5,158.833 341.5,156.167 340.5,153.5C 333.979,134.961 334.979,116.627 343.5,98.5C 345.316,96.8816 346.649,94.8816 347.5,92.5C 351.127,87.2056 355.46,82.539 360.5,78.5C 361.833,77.8333 362.833,76.8333 363.5,75.5C 380.595,64.4147 399.261,60.7481 419.5,64.5 Z M 395.5,96.5 C 397.47,104.769 398.136,113.435 397.5,122.5C 395.246,121.585 393.246,120.252 391.5,118.5C 390.737,116.632 389.737,114.965 388.5,113.5C 387.849,106.483 390.183,100.817 395.5,96.5 Z M 410.5,138.5 C 418.652,144.446 420.152,151.779 415,160.5C 413.568,162.439 411.735,163.772 409.5,164.5C 409.174,155.651 409.507,146.984 410.5,138.5 Z"/></g>
<g><path style="opacity:0.733" fill="#8a0906" d="M 450.5,51.5 C 450.897,50.475 451.563,50.3083 452.5,51C 454.063,51.7589 455.063,52.9256 455.5,54.5C 453.668,53.7515 452.001,52.7515 450.5,51.5 Z"/></g>
<g><path style="opacity:0.949" fill="#5c0401" d="M 469.5,49.5 C 471.167,50.5 472.5,51.8333 473.5,53.5C 471.456,52.9688 469.789,51.8022 468.5,50C 468.728,49.6012 469.062,49.4346 469.5,49.5 Z"/></g>
<g><path style="opacity:0.863" fill="#5b0600" d="M 331.5,54.5 C 331.5,56.5 330.5,57.5 328.5,57.5C 329.167,56.1667 330.167,55.1667 331.5,54.5 Z"/></g>
<g><path style="opacity:0.678" fill="#2a0400" d="M 457.5,55.5 C 459.027,55.427 460.027,56.0937 460.5,57.5C 460.167,57.5 459.833,57.5 459.5,57.5C 458.5,57.1667 457.833,56.5 457.5,55.5 Z"/></g>
<g><path style="opacity:0.843" fill="#350f04" d="M 481.5,61.5 C 482.5,61.8333 483.167,62.5 483.5,63.5C 483.5,63.8333 483.5,64.1667 483.5,64.5C 482.094,64.0269 481.427,63.0269 481.5,61.5 Z"/></g>
<g><path style="opacity:0.953" fill="#620704" d="M 324.5,62.5 C 323.969,64.5441 322.802,66.2107 321,67.5C 320.601,67.2716 320.435,66.9382 320.5,66.5C 321.5,64.8333 322.833,63.5 324.5,62.5 Z"/></g>
<g><path style="opacity:0.392" fill="#5e0405" d="M 419.5,64.5 C 422.916,64.5275 425.916,65.5275 428.5,67.5C 425.215,67.0719 422.215,66.0719 419.5,64.5 Z"/></g>
<g><path style="opacity:0.494" fill="#a40404" d="M 483.5,63.5 C 486.605,66.2749 488.938,69.6082 490.5,73.5C 487.815,70.8103 485.482,67.8103 483.5,64.5C 483.5,64.1667 483.5,63.8333 483.5,63.5 Z"/></g>
<g><path style="opacity:0.82" fill="#a40504" d="M 459.5,57.5 C 459.833,57.5 460.167,57.5 460.5,57.5C 465.908,61.4002 470.908,65.9002 475.5,71C 475.272,71.3988 474.938,71.5654 474.5,71.5C 469.474,66.8053 464.474,62.1387 459.5,57.5 Z"/></g>
<g><path style="opacity:0.953" fill="#670303" d="M 241.5,70.5 C 244.206,70.5751 246.873,70.9084 249.5,71.5C 246.756,72.4906 244.089,72.1573 241.5,70.5 Z"/></g>
<g><path style="opacity:0.996" fill="#940906" d="M 428.5,67.5 C 433.596,68.546 437.929,70.8793 441.5,74.5C 437,72.4174 432.666,70.0841 428.5,67.5 Z"/></g>
<g><path style="opacity:0.169" fill="#2b0700" d="M 331.5,72.5 C 331.167,73.5 330.5,74.1667 329.5,74.5C 329.369,73.7611 329.536,73.0944 330,72.5C 330.69,71.2617 331.19,71.2617 331.5,72.5 Z"/></g>
<g><path style="opacity:0.957" fill="#690902" d="M 254.5,73.5 C 256.153,73.6596 257.486,74.3263 258.5,75.5C 258.565,75.9382 258.399,76.2716 258,76.5C 256.581,75.5399 255.081,74.7065 253.5,74C 253.728,73.6012 254.062,73.4346 254.5,73.5 Z"/></g>
<g><path style="opacity:0.999" fill="#e90101" d="M 406.5,76.5 C 406.062,76.4346 405.728,76.6012 405.5,77C 407.434,79.1615 408.767,80.9949 409.5,82.5C 413.147,83.6566 416.48,85.3233 419.5,87.5C 420.438,90.1569 422.438,92.4903 425.5,94.5C 429.726,99.7017 431.226,105.702 430,112.5C 426.333,116.5 422.667,116.5 419,112.5C 419.027,105.55 416.194,100.217 410.5,96.5C 410.607,94.6214 410.107,94.2881 409,95.5C 408.333,105.5 408.333,115.5 409,125.5C 409.977,126.774 410.811,126.774 411.5,125.5C 423.676,129.836 430.009,138.503 430.5,151.5C 429.544,164.12 423.21,172.786 411.5,177.5C 410.791,176.596 409.791,176.263 408.5,176.5C 408.046,178.741 408.046,180.741 408.5,182.5C 407.264,184.043 405.598,185.043 403.5,185.5C 402.893,185.376 402.56,185.043 402.5,184.5C 401.828,183.733 400.995,183.066 400,182.5C 399.601,182.728 399.435,183.062 399.5,183.5C 398.5,183.167 397.833,182.5 397.5,181.5C 398.451,180.081 398.784,178.415 398.5,176.5C 397.167,176.5 395.833,176.5 394.5,176.5C 391.794,176.312 389.461,175.312 387.5,173.5C 386.833,170.833 385.167,169.167 382.5,168.5C 376.424,161.791 375.091,154.291 378.5,146C 382.274,144.817 385.441,145.651 388,148.5C 388.182,153.891 390.016,158.558 393.5,162.5C 392.262,162.81 392.262,163.31 393.5,164C 394.437,164.692 395.103,164.525 395.5,163.5C 396.167,163.833 396.833,164.167 397.5,164.5C 398.504,155.889 398.838,145.889 398.5,134.5C 397.209,134.263 396.209,134.596 395.5,135.5C 394.005,135.011 392.671,134.345 391.5,133.5C 391.622,132.293 390.622,131.626 388.5,131.5C 386.596,131.262 385.262,130.262 384.5,128.5C 384.938,128.565 385.272,128.399 385.5,128C 383.584,125.91 381.584,124.077 379.5,122.5C 378.559,120.95 377.893,119.284 377.5,117.5C 378.043,117.44 378.376,117.107 378.5,116.5C 377.92,113.689 377.254,111.023 376.5,108.5C 377.381,95.4141 384.047,86.7474 396.5,82.5C 397.576,76.3048 400.909,74.3048 406.5,76.5 Z M 395.5,96.5 C 397.47,104.769 398.136,113.435 397.5,122.5C 395.246,121.585 393.246,120.252 391.5,118.5C 390.737,116.632 389.737,114.965 388.5,113.5C 387.849,106.483 390.183,100.817 395.5,96.5 Z M 410.5,138.5 C 418.652,144.446 420.152,151.779 415,160.5C 413.568,162.439 411.735,163.772 409.5,164.5C 409.174,155.651 409.507,146.984 410.5,138.5 Z"/></g>
<g><path style="opacity:0.961" fill="#640101" d="M 314.5,75.5 C 315.55,75.9046 315.55,76.5712 314.5,77.5C 314.043,78.2975 313.376,78.6309 312.5,78.5C 312.932,77.2905 313.599,76.2905 314.5,75.5 Z"/></g>
<g><path style="opacity:0.051" fill="#4d0400" d="M 363.5,75.5 C 362.833,76.8333 361.833,77.8333 360.5,78.5C 360.062,78.5654 359.728,78.3988 359.5,78C 360.471,76.5187 361.804,75.6854 363.5,75.5 Z"/></g>
<g><path style="opacity:0.196" fill="#7a0c05" d="M 406.5,76.5 C 408.975,77.6874 409.975,79.6874 409.5,82.5C 408.767,80.9949 407.434,79.1615 405.5,77C 405.728,76.6012 406.062,76.4346 406.5,76.5 Z"/></g>
<g><path style="opacity:0.549" fill="#600708" d="M 344.5,76.5 C 345.016,77.7582 344.35,78.7582 342.5,79.5C 342.427,77.9731 343.094,76.9731 344.5,76.5 Z"/></g>
<g><path style="opacity:0.09" fill="#890506" d="M 461.5,76.5 C 463.914,77.9108 465.581,79.9108 466.5,82.5C 464.086,81.0892 462.419,79.0892 461.5,76.5 Z"/></g>
<g><path style="opacity:0.725" fill="#9d0605" d="M 444.5,76.5 C 450.882,80.5485 455.882,85.8818 459.5,92.5C 454.528,87.1929 449.528,81.8595 444.5,76.5 Z"/></g>
<g><path style="opacity:0.106" fill="#7e0805" d="M 482.5,82.5 C 484.179,83.9997 485.512,85.833 486.5,88C 486.272,88.3988 485.938,88.5654 485.5,88.5C 483.992,86.8185 482.992,84.8185 482.5,82.5 Z"/></g>
<g><path style="opacity:0.961" fill="#600604" d="M 268.5,83.5 C 270.262,84.2623 271.262,85.5956 271.5,87.5C 269.738,86.7377 268.738,85.4044 268.5,83.5 Z"/></g>
<g><path style="opacity:0.524" fill="#2d0000" d="M 141.5,86.5 C 141.167,87.5 140.5,88.1667 139.5,88.5C 139.062,88.5654 138.728,88.3988 138.5,88C 139.244,86.9614 140.244,86.4614 141.5,86.5 Z"/></g>
<g><path style="opacity:0.98" fill="#950203" d="M 338.5,83.5 C 339.525,83.8966 339.692,84.5632 339,85.5C 335.555,90.7315 332.389,96.0649 329.5,101.5C 331.442,94.9486 334.442,88.9486 338.5,83.5 Z"/></g>
<g><path style="opacity:0.961" fill="#720201" d="M 419.5,87.5 C 422.243,89.2393 424.243,91.5726 425.5,94.5C 422.438,92.4903 420.438,90.1569 419.5,87.5 Z"/></g>
<g><path style="opacity:0.475" fill="#5e0203" d="M 499.5,89.5 C 500.11,90.391 500.443,91.391 500.5,92.5C 500.565,92.9382 500.399,93.2716 500,93.5C 498.702,92.0544 498.535,90.7211 499.5,89.5 Z"/></g>
<g><path style="opacity:0.29" fill="#970003" d="M 306.5,91.5 C 306.938,91.4346 307.272,91.6012 307.5,92C 305.909,96.2893 304.242,100.456 302.5,104.5C 303.057,99.8354 304.39,95.5021 306.5,91.5 Z"/></g>
<g><path style="opacity:0.608" fill="#560801" d="M 319.5,91.5 C 319.443,92.609 319.11,93.609 318.5,94.5C 317.535,93.2789 317.702,91.9456 319,90.5C 319.399,90.7284 319.565,91.0618 319.5,91.5 Z"/></g>
<g><path style="opacity:0.345" fill="#7f0005" d="M 347.5,92.5 C 346.649,94.8816 345.316,96.8816 343.5,98.5C 344.045,96.4068 344.878,94.4068 346,92.5C 346.69,91.2617 347.19,91.2617 347.5,92.5 Z"/></g>
<g><path style="opacity:0.89" fill="#930101" d="M 397.5,122.5 C 398.136,113.435 397.47,104.769 395.5,96.5C 395.062,96.5654 394.728,96.3988 394.5,96C 395.5,95.5 396.5,95 397.5,94.5C 398.794,105.204 398.794,114.537 397.5,122.5 Z"/></g>
<g><path style="opacity:0.486" fill="#940001" d="M 410.5,96.5 C 409.342,105.657 409.176,114.991 410,124.5C 410.383,125.056 410.883,125.389 411.5,125.5C 410.811,126.774 409.977,126.774 409,125.5C 408.333,115.5 408.333,105.5 409,95.5C 410.107,94.2881 410.607,94.6214 410.5,96.5 Z"/></g>
<g><path style="opacity:0.62" fill="#8e0002" d="M 317.5,95.5 C 316.739,99.7843 315.405,103.784 313.5,107.5C 313.861,103.085 315.194,99.0845 317.5,95.5 Z"/></g>
<g><path style="opacity:0.992" fill="#740b05" d="M 478.5,105.5 C 479.924,107.515 480.59,109.848 480.5,112.5C 479.076,110.485 478.41,108.152 478.5,105.5 Z"/></g>
<g><path style="opacity:0.98" fill="#7d0603" d="M 376.5,108.5 C 377.254,111.023 377.92,113.689 378.5,116.5C 378.376,117.107 378.043,117.44 377.5,117.5C 376.597,114.609 376.264,111.609 376.5,108.5 Z"/></g>
<g><path style="opacity:0.518" fill="#770001" d="M 388.5,113.5 C 389.737,114.965 390.737,116.632 391.5,118.5C 391.19,119.738 390.69,119.738 390,118.5C 388.991,116.975 388.491,115.308 388.5,113.5 Z"/></g>
<g><path style="opacity:0.984" fill="#8c0106" d="M 232.5,115.5 C 230.192,117.471 227.858,119.471 225.5,121.5C 226.612,118.054 228.945,116.054 232.5,115.5 Z"/></g>
<g><path style="opacity:0.929" fill="#2b0500" d="M 159.5,116.5 C 159.938,116.435 160.272,116.601 160.5,117C 159.364,118.145 158.364,119.312 157.5,120.5C 157.229,118.62 157.896,117.287 159.5,116.5 Z"/></g>
<g><path style="opacity:0.831" fill="#8c0604" d="M 137.5,114.5 C 138.91,118.397 139.91,122.397 140.5,126.5C 138.901,123.216 137.567,119.716 136.5,116C 136.57,115.235 136.903,114.735 137.5,114.5 Z"/></g>
<g><path style="opacity:0.788" fill="#580d01" d="M 168.5,118.5 C 169.5,118.833 170.167,119.5 170.5,120.5C 170.565,120.938 170.399,121.272 170,121.5C 168.961,120.756 168.461,119.756 168.5,118.5 Z"/></g>
<g><path style="opacity:0.486" fill="#7f0907" d="M 239.5,120.5 C 239.539,123.089 238.539,125.089 236.5,126.5C 236.992,124.181 237.992,122.181 239.5,120.5 Z"/></g>
<g><path style="opacity:0.965" fill="#810003" d="M 224.5,122.5 C 224.938,122.435 225.272,122.601 225.5,123C 224.267,124.667 222.933,126.167 221.5,127.5C 221.75,125.326 222.75,123.659 224.5,122.5 Z"/></g>
<g><path style="opacity:0.475" fill="#7e0704" d="M 379.5,122.5 C 381.584,124.077 383.584,125.91 385.5,128C 385.272,128.399 384.938,128.565 384.5,128.5C 382.11,127.109 380.443,125.109 379.5,122.5 Z"/></g>
<g><path style="opacity:0.859" fill="#4e0703" d="M 388.5,131.5 C 390.622,131.626 391.622,132.293 391.5,133.5C 389.973,133.573 388.973,132.906 388.5,131.5 Z"/></g>
<g><path style="opacity:0.992" fill="#a60204" d="M 221.5,127.5 C 220.258,131.655 218.258,135.322 215.5,138.5C 216.742,134.345 218.742,130.678 221.5,127.5 Z"/></g>
<g><path style="opacity:0.89" fill="#930000" d="M 395.5,135.5 C 396.209,134.596 397.209,134.263 398.5,134.5C 398.838,145.889 398.504,155.889 397.5,164.5C 398.14,154.442 397.473,144.775 395.5,135.5 Z"/></g>
<g><path style="opacity:0.941" fill="#5e0906" d="M 165.5,135.5 C 166.376,135.369 167.043,135.702 167.5,136.5C 168.373,138.413 169.373,140.247 170.5,142C 170.272,142.399 169.938,142.565 169.5,142.5C 167.929,140.365 166.596,138.032 165.5,135.5 Z"/></g>
<g><path style="opacity:0.486" fill="#940000" d="M 410.5,138.5 C 409.507,146.984 409.174,155.651 409.5,164.5C 408.343,155.676 408.176,146.676 409,137.5C 410.107,136.288 410.607,136.621 410.5,138.5 Z"/></g>
<g><path style="opacity:0.851" fill="#4f0003" d="M 252.5,136.5 C 252.938,136.435 253.272,136.601 253.5,137C 252.915,138.302 252.249,139.469 251.5,140.5C 251.232,138.901 251.566,137.568 252.5,136.5 Z"/></g>
<g><path style="opacity:0.098" fill="#840705" d="M 470.5,137.5 C 471.043,137.56 471.376,137.893 471.5,138.5C 471.024,141.793 470.024,144.793 468.5,147.5C 468.956,144.094 469.622,140.761 470.5,137.5 Z"/></g>
<g><path style="opacity:0.047" fill="#5f0d03" d="M 263.5,140.5 C 263.371,142.216 263.038,143.883 262.5,145.5C 261.322,143.662 261.655,141.995 263.5,140.5 Z"/></g>
<g><path style="opacity:0.549" fill="#5c0205" d="M 224.5,148.5 C 224.567,149.959 224.234,151.292 223.5,152.5C 222.957,152.44 222.624,152.107 222.5,151.5C 222.868,149.513 223.534,148.513 224.5,148.5 Z"/></g>
<g><path style="opacity:0.973" fill="#880b05" d="M 180.5,138.5 C 183.137,143.079 184.804,148.079 185.5,153.5C 183.265,148.795 181.598,143.795 180.5,138.5 Z"/></g>
<g><path style="opacity:0.071" fill="#7d0d05" d="M 137.5,156.5 C 136.262,154.786 135.595,152.786 135.5,150.5C 136.975,151.523 137.642,153.523 137.5,156.5 Z"/></g>
<g><path style="opacity:0.043" fill="#5f0504" d="M 172.5,150.5 C 174.04,152.838 174.706,155.505 174.5,158.5C 166.316,158.826 158.316,158.492 150.5,157.5C 158.167,157.5 165.833,157.5 173.5,157.5C 173.007,155.194 172.674,152.861 172.5,150.5 Z"/></g>
<g><path style="opacity:0.235" fill="#540906" d="M 492.5,153.5 C 493.471,154.962 493.138,156.295 491.5,157.5C 491.433,156.041 491.766,154.708 492.5,153.5 Z"/></g>
<g><path style="opacity:0.435" fill="#830305" d="M 340.5,153.5 C 341.5,156.167 342.5,158.833 343.5,161.5C 340.704,159.285 339.704,156.619 340.5,153.5 Z"/></g>
<g><path style="opacity:0.945" fill="#660804" d="M 258.5,156.5 C 259.306,157.728 260.306,158.728 261.5,159.5C 258.466,159.817 257.466,158.817 258.5,156.5 Z"/></g>
<g><path style="opacity:0.765" fill="#370804" d="M 465.5,156.5 C 465.938,156.435 466.272,156.601 466.5,157C 465.934,157.995 465.267,158.828 464.5,159.5C 464.263,158.209 464.596,157.209 465.5,156.5 Z"/></g>
<g><path style="opacity:0.157" fill="#310200" d="M 393.5,162.5 C 394.167,162.833 394.833,163.167 395.5,163.5C 395.103,164.525 394.437,164.692 393.5,164C 392.262,163.31 392.262,162.81 393.5,162.5 Z"/></g>
<g><path style="opacity:0.945" fill="#490500" d="M 265.5,161.5 C 266.5,161.833 267.167,162.5 267.5,163.5C 267.19,164.738 266.69,164.738 266,163.5C 265.536,162.906 265.369,162.239 265.5,161.5 Z"/></g>
<g><path style="opacity:0.529" fill="#770203" d="M 488.5,166.5 C 487.873,170.42 486.207,173.753 483.5,176.5C 484.659,172.849 486.326,169.515 488.5,166.5 Z"/></g>
<g><path style="opacity:0.855" fill="#6b0507" d="M 305.5,165.5 C 306.771,167.109 307.771,168.942 308.5,171C 308.272,171.399 307.938,171.565 307.5,171.5C 306.262,169.786 305.595,167.786 305.5,165.5 Z"/></g>
<g><path style="opacity:0.247" fill="#860405" d="M 382.5,168.5 C 385.167,169.167 386.833,170.833 387.5,173.5C 385.5,172.167 383.833,170.5 382.5,168.5 Z"/></g>
<g><path style="opacity:0.451" fill="#a40005" d="M 501.5,164.5 C 500.956,168.466 499.623,172.133 497.5,175.5C 496.957,175.44 496.624,175.107 496.5,174.5C 498.186,171.063 499.853,167.729 501.5,164.5 Z"/></g>
<g><path style="opacity:0.965" fill="#6c0702" d="M 311.5,179.5 C 309.992,177.819 308.992,175.819 308.5,173.5C 310.02,174.479 311.353,176.313 312.5,179C 312.272,179.399 311.938,179.565 311.5,179.5 Z"/></g>
<g><path style="opacity:0.929" fill="#390a01" d="M 455.5,173.5 C 455.5,175.5 454.5,176.5 452.5,176.5C 453.167,175.167 454.167,174.167 455.5,173.5 Z"/></g>
<g><path style="opacity:0.875" fill="#860003" d="M 394.5,176.5 C 395.833,176.5 397.167,176.5 398.5,176.5C 398.784,178.415 398.451,180.081 397.5,181.5C 397.5,180.167 397.5,178.833 397.5,177.5C 396.209,177.737 395.209,177.404 394.5,176.5 Z"/></g>
<g><path style="opacity:0.169" fill="#280700" d="M 466.5,178.5 C 466.167,179.5 465.5,180.167 464.5,180.5C 464.461,179.244 464.961,178.244 466,177.5C 466.399,177.728 466.565,178.062 466.5,178.5 Z"/></g>
<g><path style="opacity:0.071" fill="#7e0805" d="M 411.5,177.5 C 409.777,178.605 408.777,180.272 408.5,182.5C 408.046,180.741 408.046,178.741 408.5,176.5C 409.791,176.263 410.791,176.596 411.5,177.5 Z"/></g>
<g><path style="opacity:0.49" fill="#9e0604" d="M 496.5,176.5 C 495.358,180.117 493.692,183.45 491.5,186.5C 490.475,186.103 490.308,185.437 491,184.5C 492.609,181.593 494.442,178.927 496.5,176.5 Z"/></g>
<g><path style="opacity:0.969" fill="#760401" d="M 452.5,176.5 C 451.627,178.886 450.127,180.886 448,182.5C 447.601,182.272 447.435,181.938 447.5,181.5C 448.833,179.5 450.5,177.833 452.5,176.5 Z"/></g>
<g><path style="opacity:0.435" fill="#840604" d="M 134.5,179.5 C 135.82,181.463 137.154,183.463 138.5,185.5C 135.708,184.608 134.375,182.608 134.5,179.5 Z"/></g>
<g><path style="opacity:0.118" fill="#5b0501" d="M 402.5,184.5 C 401.209,184.737 400.209,184.404 399.5,183.5C 399.435,183.062 399.601,182.728 400,182.5C 400.995,183.066 401.828,183.733 402.5,184.5 Z"/></g>
<g><path style="opacity:0.773" fill="#540000" d="M 480.5,181.5 C 480.631,182.239 480.464,182.906 480,183.5C 479.31,184.738 478.81,184.738 478.5,183.5C 478.833,182.5 479.5,181.833 480.5,181.5 Z"/></g>
<g><path style="opacity:0.953" fill="#5f0604" d="M 327.5,183.5 C 329.262,184.262 330.262,185.596 330.5,187.5C 328.738,186.738 327.738,185.404 327.5,183.5 Z"/></g>
<g><path style="opacity:0.102" fill="#310400" d="M 460.5,185.5 C 460.167,186.5 459.5,187.167 458.5,187.5C 458.5,186.167 459.167,185.5 460.5,185.5 Z"/></g>
<g><path style="opacity:0.051" fill="#3d0200" d="M 452.5,192.5 C 452.027,193.906 451.027,194.573 449.5,194.5C 450.242,192.65 451.242,191.984 452.5,192.5 Z"/></g>
<g><path style="opacity:0.867" fill="#5f0201" d="M 128.5,193.5 C 128.262,195.404 127.262,196.738 125.5,197.5C 125.738,195.596 126.738,194.262 128.5,193.5 Z"/></g>
<g><path style="opacity:0.843" fill="#3a0700" d="M 471.5,192.5 C 470.969,194.544 469.802,196.211 468,197.5C 467.601,197.272 467.435,196.938 467.5,196.5C 468.5,194.833 469.833,193.5 471.5,192.5 Z"/></g>
<g><path style="opacity:0.082" fill="#670d07" d="M 446.5,196.5 C 446.027,197.906 445.027,198.573 443.5,198.5C 443.973,197.094 444.973,196.427 446.5,196.5 Z"/></g>
<g><path style="opacity:0.969" fill="#830a04" d="M 253.5,199.5 C 256.08,197.984 258.08,198.651 259.5,201.5C 257.685,200.37 255.685,199.704 253.5,199.5 Z"/></g>
<g><path style="opacity:0.973" fill="#9d0003" d="M 361.5,197.5 C 366.128,198.953 369.794,200.953 372.5,203.5C 368.345,202.258 364.678,200.258 361.5,197.5 Z"/></g>
<g><path style="opacity:0.129" fill="#840503" d="M 478.5,202.5 C 477.5,204.167 476.167,205.5 474.5,206.5C 475.031,204.456 476.198,202.789 478,201.5C 478.399,201.728 478.565,202.062 478.5,202.5 Z"/></g>
<g><path style="opacity:0.204" fill="#2a0300" d="M 347.5,203.5 C 348.5,203.833 349.167,204.5 349.5,205.5C 348.761,205.631 348.094,205.464 347.5,205C 346.262,204.31 346.262,203.81 347.5,203.5 Z"/></g>
<g><path style="opacity:0.969" fill="#7f0002" d="M 134.5,206.5 C 134.971,208.579 135.637,210.579 136.5,212.5C 135.503,212.53 134.836,212.03 134.5,211C 133.173,208.648 133.173,207.148 134.5,206.5 Z"/></g>
<g><path style="opacity:0.949" fill="#620102" d="M 454.5,207.5 C 453.341,209.25 451.674,210.25 449.5,210.5C 450.659,208.75 452.326,207.75 454.5,207.5 Z"/></g>
<g><path style="opacity:0.965" fill="#630001" d="M 338.5,211.5 C 339.756,211.461 340.756,211.961 341.5,213C 341.272,213.399 340.938,213.565 340.5,213.5C 339.5,213.167 338.833,212.5 338.5,211.5 Z"/></g>
<g><path style="opacity:0.118" fill="#4d0a00" d="M 469.5,210.5 C 469.167,211.5 468.5,212.167 467.5,212.5C 466.262,212.19 466.262,211.69 467.5,211C 468.094,210.536 468.761,210.369 469.5,210.5 Z"/></g>
<g><path style="opacity:0.933" fill="#5b0503" d="M 449.5,210.5 C 448,212.179 446.167,213.512 444,214.5C 443.601,214.272 443.435,213.938 443.5,213.5C 445.181,211.992 447.181,210.992 449.5,210.5 Z"/></g>
<g><path style="opacity:0.467" fill="#420903" d="M 456.5,219.5 C 456.027,220.906 455.027,221.573 453.5,221.5C 453.378,220.293 454.378,219.626 456.5,219.5 Z"/></g>
<g><path style="opacity:0.618" fill="#5b0401" d="M 465.5,224.5 C 467.553,224.402 469.22,225.069 470.5,226.5C 468.447,226.598 466.78,225.931 465.5,224.5 Z"/></g>
<g><path style="opacity:0.984" fill="#9c0405" d="M 335.5,226.5 C 335.938,226.435 336.272,226.601 336.5,227C 333.073,228.796 329.906,230.963 327,233.5C 326.601,233.272 326.435,232.938 326.5,232.5C 328.975,229.759 331.975,227.759 335.5,226.5 Z"/></g>
<g><path style="opacity:0.282" fill="#580401" d="M 477.5,230.5 C 478.833,231.167 479.833,232.167 480.5,233.5C 478.804,233.315 477.471,232.481 476.5,231C 476.728,230.601 477.062,230.435 477.5,230.5 Z"/></g>
<g><path style="opacity:0.937" fill="#660307" d="M 88.5,231.5 C 88.2504,232.922 87.417,233.922 86,234.5C 85.6012,234.272 85.4346,233.938 85.5,233.5C 86.2905,232.599 87.2905,231.932 88.5,231.5 Z"/></g>
<g><path style="opacity:0.478" fill="#7a0303" d="M 311.5,234.5 C 314.689,235.514 317.522,237.18 320,239.5C 321.517,237.76 323.017,236.094 324.5,234.5C 324.938,234.435 325.272,234.601 325.5,235C 324.215,237.423 322.382,239.256 320,240.5C 316.719,239.04 313.886,237.04 311.5,234.5 Z"/></g>
<g><path style="opacity:0.706" fill="#910706" d="M 476.5,247.5 C 474.196,244.859 471.862,242.192 469.5,239.5C 472.65,240.79 475.317,243.29 477.5,247C 477.272,247.399 476.938,247.565 476.5,247.5 Z"/></g>
<g><path style="opacity:0.514" fill="#5b0504" d="M 299.5,241.5 C 299.56,240.957 299.893,240.624 300.5,240.5C 302.213,240.879 303.213,241.879 303.5,243.5C 302.167,242.833 300.833,242.167 299.5,241.5 Z"/></g>
<g><path style="opacity:0.863" fill="#6a0402" d="M 69.5,244.5 C 69.9382,244.435 70.2716,244.601 70.5,245C 69.2107,246.802 67.5441,247.969 65.5,248.5C 66.5,246.833 67.8333,245.5 69.5,244.5 Z"/></g>
<g><path style="opacity:0.995" fill="#e40101" d="M 234.5,254.5 C 235.144,256.054 236.811,257.054 239.5,257.5C 269.376,275.578 283.209,302.245 281,337.5C 280.814,340.036 280.314,342.369 279.5,344.5C 278.232,346.905 277.565,349.572 277.5,352.5C 271.794,373.256 259.794,389.256 241.5,400.5C 240.221,399.285 239.221,399.618 238.5,401.5C 236.365,403.071 234.032,404.404 231.5,405.5C 230.038,404.529 228.705,404.862 227.5,406.5C 220.975,409.646 213.975,411.479 206.5,412C 198.27,412.879 190.27,412.379 182.5,410.5C 180.863,409.62 179.03,408.954 177,408.5C 176.235,408.57 175.735,408.903 175.5,409.5C 134.427,395.229 114.26,366.229 115,322.5C 115.592,316.042 116.759,309.709 118.5,303.5C 120.614,302.216 121.614,300.216 121.5,297.5C 124.307,289.213 128.64,281.88 134.5,275.5C 139.167,272.833 142.833,269.167 145.5,264.5C 148.167,262.5 150.833,260.5 153.5,258.5C 156.047,259.231 158.047,258.231 159.5,255.5C 184.346,242.711 209.346,242.378 234.5,254.5 Z M 204.5,258.5 C 207.455,259.159 210.455,259.492 213.5,259.5C 216.619,260.87 219.952,261.87 223.5,262.5C 224.514,263.674 225.847,264.34 227.5,264.5C 263.819,285.111 275.819,315.444 263.5,355.5C 262.5,358.167 261.5,360.833 260.5,363.5C 258.336,365.822 256.669,368.489 255.5,371.5C 253.086,372.911 251.419,374.911 250.5,377.5C 228.173,398.902 202.173,404.902 172.5,395.5C 171.791,394.596 170.791,394.263 169.5,394.5C 158.01,388.674 148.343,380.674 140.5,370.5C 140.167,369.5 139.5,368.833 138.5,368.5C 128.365,351.819 125.031,333.819 128.5,314.5C 129.697,310.905 130.697,307.239 131.5,303.5C 145.803,272.579 170.136,257.579 204.5,258.5 Z M 190.5,292.5 C 187.861,294.309 185.694,296.642 184,299.5C 180.538,308.777 182.871,316.11 191,321.5C 191.825,311.658 191.658,301.991 190.5,292.5 Z M 209.5,362.5 C 208.5,362.833 207.833,363.5 207.5,364.5C 206.504,364.414 205.671,364.748 205,365.5C 204.168,356.149 204.335,346.816 205.5,337.5C 212.573,341.863 215.073,348.197 213,356.5C 212.074,358.692 210.907,360.692 209.5,362.5 Z"/></g>
<g><path style="opacity:0.957" fill="#7a0203" d="M 311.5,248.5 C 309.77,247.974 308.436,246.974 307.5,245.5C 307.435,245.062 307.601,244.728 308,244.5C 308.903,245.701 310.069,246.535 311.5,247C 312.738,247.69 312.738,248.19 311.5,248.5 Z"/></g>
<g><path style="opacity:0.075" fill="#5d0b02" d="M 86.5,246.5 C 86.0269,247.906 85.0269,248.573 83.5,248.5C 83.9731,247.094 84.9731,246.427 86.5,246.5 Z"/></g>
<g><path style="opacity:0.714" fill="#660202" d="M 329.5,248.5 C 329.34,250.153 328.674,251.486 327.5,252.5C 327.365,250.028 328.032,248.694 329.5,248.5 Z"/></g>
<g><path style="opacity:0.867" fill="#780406" d="M 234.5,254.5 C 236.674,254.75 238.341,255.75 239.5,257.5C 236.811,257.054 235.144,256.054 234.5,254.5 Z"/></g>
<g><path style="opacity:0.992" fill="#850307" d="M 159.5,255.5 C 158.047,258.231 156.047,259.231 153.5,258.5C 155.517,257.471 157.517,256.471 159.5,255.5 Z"/></g>
<g><path style="opacity:0.725" fill="#800503" d="M 204.5,258.5 C 204.917,257.876 205.584,257.543 206.5,257.5C 209.029,257.929 211.362,258.596 213.5,259.5C 210.455,259.492 207.455,259.159 204.5,258.5 Z"/></g>
<g><path style="opacity:0.565" fill="#570f06" d="M 223.5,262.5 C 225.972,262.365 227.306,263.032 227.5,264.5C 225.847,264.34 224.514,263.674 223.5,262.5 Z"/></g>
<g><path style="opacity:0.953" fill="#570000" d="M 52.5,262.5 C 52.5386,263.756 52.0386,264.756 51,265.5C 50.6012,265.272 50.4346,264.938 50.5,264.5C 50.8333,263.5 51.5,262.833 52.5,262.5 Z"/></g>
<g><path style="opacity:0.569" fill="#750104" d="M 479.5,260.5 C 480.917,263.34 480.584,266.007 478.5,268.5C 479.092,265.873 479.425,263.206 479.5,260.5 Z"/></g>
<g><path style="opacity:0.976" fill="#7e0102" d="M 145.5,264.5 C 142.833,269.167 139.167,272.833 134.5,275.5C 137.833,271.5 141.5,267.833 145.5,264.5 Z"/></g>
<g><path style="opacity:0.094" fill="#6b0003" d="M 491.5,262.5 C 491.841,266.16 491.175,269.493 489.5,272.5C 489.753,268.96 490.419,265.627 491.5,262.5 Z"/></g>
<g><path style="opacity:0.998" fill="#e70101" d="M 214.5,284.5 C 218.173,288.348 221.506,293.014 224.5,298.5C 227.008,302.942 227.008,307.442 224.5,312C 220.906,314.247 217.739,313.747 215,310.5C 214.653,302.75 211.319,296.75 205,292.5C 204.333,302.833 204.333,313.167 205,323.5C 216.161,326.837 222.995,334.17 225.5,345.5C 224.957,345.56 224.624,345.893 224.5,346.5C 225.08,349.311 225.746,351.977 226.5,354.5C 225.738,358.133 224.404,361.466 222.5,364.5C 221.094,364.973 220.427,365.973 220.5,367.5C 220.672,368.492 220.338,369.158 219.5,369.5C 217.522,369.738 215.855,371.071 214.5,373.5C 212.973,373.427 211.973,374.094 211.5,375.5C 209.574,377.293 207.241,378.293 204.5,378.5C 203.434,386.617 199.601,388.284 193,383.5C 191.991,381.975 191.491,380.308 191.5,378.5C 187.58,377.873 184.247,376.207 181.5,373.5C 179.5,371.329 177.666,368.996 176,366.5C 175.31,365.262 174.81,365.262 174.5,366.5C 170.855,361.26 169.522,355.593 170.5,349.5C 175.311,345.128 179.311,345.795 182.5,351.5C 182.706,356.693 184.706,361.027 188.5,364.5C 189.006,366.105 189.673,366.439 190.5,365.5C 191.166,360.511 191.499,355.344 191.5,350C 191.451,344.256 190.784,338.756 189.5,333.5C 188.152,332.399 186.652,331.399 185,330.5C 184.601,330.728 184.435,331.062 184.5,331.5C 182.405,330.588 180.405,329.421 178.5,328C 177.177,327.184 176.511,326.017 176.5,324.5C 175.839,322.243 174.839,320.909 173.5,320.5C 168.711,312.326 168.378,303.992 172.5,295.5C 174.326,293.853 175.66,291.853 176.5,289.5C 176.833,287.167 178.167,285.833 180.5,285.5C 183.359,284.485 185.359,283.151 186.5,281.5C 187.641,280.661 188.974,279.994 190.5,279.5C 195.5,268.833 200.5,268.833 205.5,279.5C 209.015,280.42 212.015,282.087 214.5,284.5 Z M 190.5,292.5 C 187.861,294.309 185.694,296.642 184,299.5C 180.538,308.777 182.871,316.11 191,321.5C 191.825,311.658 191.658,301.991 190.5,292.5 Z M 209.5,362.5 C 208.5,362.833 207.833,363.5 207.5,364.5C 206.504,364.414 205.671,364.748 205,365.5C 204.168,356.149 204.335,346.816 205.5,337.5C 212.573,341.863 215.073,348.197 213,356.5C 212.074,358.692 210.907,360.692 209.5,362.5 Z"/></g>
<g><path style="opacity:0.878" fill="#7a0905" d="M 473.5,276.5 C 473.938,276.435 474.272,276.601 474.5,277C 472.886,279.127 470.886,280.627 468.5,281.5C 469.833,279.5 471.5,277.833 473.5,276.5 Z"/></g>
<g><path style="opacity:0.788" fill="#7e0602" d="M 186.5,281.5 C 185.359,283.151 183.359,284.485 180.5,285.5C 181.802,283.178 183.802,281.845 186.5,281.5 Z"/></g>
<g><path style="opacity:0.055" fill="#7f0804" d="M 52.5,282.5 C 52.0075,284.819 51.0075,286.819 49.5,288.5C 49.0618,288.565 48.7284,288.399 48.5,288C 49.4881,285.833 50.8214,284 52.5,282.5 Z"/></g>
<g><path style="opacity:0.957" fill="#730703" d="M 176.5,289.5 C 175.66,291.853 174.326,293.853 172.5,295.5C 172.845,292.802 174.178,290.802 176.5,289.5 Z"/></g>
<g><path style="opacity:0.122" fill="#820404" d="M 328.5,294.5 C 329.6,293.395 330.267,292.062 330.5,290.5C 331.297,289.522 331.964,289.855 332.5,291.5C 331.717,293.288 330.384,294.288 328.5,294.5 Z"/></g>
<g><path style="opacity:0.408" fill="#a10304" d="M 214.5,284.5 C 216.716,285.203 218.549,286.536 220,288.5C 222.324,291.48 223.824,294.813 224.5,298.5C 221.506,293.014 218.173,288.348 214.5,284.5 Z"/></g>
<g><path style="opacity:0.294" fill="#7e0603" d="M 46.5,294.5 C 46.0198,297.443 45.0198,300.11 43.5,302.5C 43.2323,299.658 44.2323,296.992 46.5,294.5 Z"/></g>
<g><path style="opacity:0.557" fill="#640201" d="M 463.5,299.5 C 465.51,298.651 467.177,299.318 468.5,301.5C 466.716,301.107 465.05,300.441 463.5,299.5 Z"/></g>
<g><path style="opacity:0.345" fill="#710504" d="M 121.5,297.5 C 121.614,300.216 120.614,302.216 118.5,303.5C 119.13,301.25 120.13,299.25 121.5,297.5 Z"/></g>
<g><path style="opacity:0.549" fill="#5e0303" d="M 323.5,299.5 C 323.262,301.404 322.262,302.738 320.5,303.5C 320.738,301.596 321.738,300.262 323.5,299.5 Z"/></g>
<g><path style="opacity:0.075" fill="#570801" d="M 475.5,308.5 C 474.5,308.167 473.833,307.5 473.5,306.5C 473.435,306.062 473.601,305.728 474,305.5C 475.039,306.244 475.539,307.244 475.5,308.5 Z"/></g>
<g><path style="opacity:0.718" fill="#890004" d="M 131.5,303.5 C 130.697,307.239 129.697,310.905 128.5,314.5C 127.957,314.44 127.624,314.107 127.5,313.5C 128.27,309.838 129.603,306.505 131.5,303.5 Z"/></g>
<g><path style="opacity:0.439" fill="#890002" d="M 318.5,307.5 C 318.614,310.216 317.614,312.216 315.5,313.5C 316.13,311.25 317.13,309.25 318.5,307.5 Z"/></g>
<g><path style="opacity:0.8" fill="#660d04" d="M 176.5,324.5 C 174.738,323.738 173.738,322.404 173.5,320.5C 174.839,320.909 175.839,322.243 176.5,324.5 Z"/></g>
<g><path style="opacity:0.078" fill="#440302" d="M 189.5,333.5 C 187.447,333.598 185.78,332.931 184.5,331.5C 184.435,331.062 184.601,330.728 185,330.5C 186.652,331.399 188.152,332.399 189.5,333.5 Z"/></g>
<g><path style="opacity:0.929" fill="#1e0000" d="M 330.5,335.5 C 331.11,336.391 331.443,337.391 331.5,338.5C 329.618,337.779 329.285,336.779 330.5,335.5 Z"/></g>
<g><path style="opacity:0.341" fill="#540407" d="M 317.5,336.5 C 318.267,337.172 318.934,338.005 319.5,339C 319.272,339.399 318.938,339.565 318.5,339.5C 317.596,338.791 317.263,337.791 317.5,336.5 Z"/></g>
<g><path style="opacity:0.173" fill="#590000" d="M 485.5,344.5 C 484.833,345.833 483.833,346.833 482.5,347.5C 482.5,345.5 483.5,344.5 485.5,344.5 Z"/></g>
<g><path style="opacity:0.949" fill="#6f0303" d="M 225.5,345.5 C 226.403,348.391 226.736,351.391 226.5,354.5C 225.746,351.977 225.08,349.311 224.5,346.5C 224.624,345.893 224.957,345.56 225.5,345.5 Z"/></g>
<g><path style="opacity:0.706" fill="#a30002" d="M 182.5,351.5 C 179.311,345.795 175.311,345.128 170.5,349.5C 170.511,347.983 171.177,346.816 172.5,346C 178.042,344.074 181.375,345.908 182.5,351.5 Z"/></g>
<g><path style="opacity:0.714" fill="#700103" d="M 279.5,344.5 C 279.706,347.495 279.04,350.162 277.5,352.5C 277.565,349.572 278.232,346.905 279.5,344.5 Z"/></g>
<g><path style="opacity:0.141" fill="#870104" d="M 477.5,356.5 C 480.167,358.5 482.5,360.833 484.5,363.5C 484.565,363.938 484.399,364.272 484,364.5C 481.5,362 479,359.5 476.5,357C 476.728,356.601 477.062,356.435 477.5,356.5 Z"/></g>
<g><path style="opacity:0.992" fill="#860304" d="M 263.5,355.5 C 264.296,358.619 263.296,361.285 260.5,363.5C 261.5,360.833 262.5,358.167 263.5,355.5 Z"/></g>
<g><path style="opacity:0.957" fill="#460700" d="M 209.5,362.5 C 209.938,362.435 210.272,362.601 210.5,363C 209.756,364.039 208.756,364.539 207.5,364.5C 207.833,363.5 208.5,362.833 209.5,362.5 Z"/></g>
<g><path style="opacity:0.714" fill="#5d0401" d="M 465.5,363.5 C 466.779,362.285 467.779,362.618 468.5,364.5C 467.391,364.443 466.391,364.11 465.5,363.5 Z"/></g>
<g><path style="opacity:0.102" fill="#2e0700" d="M 188.5,364.5 C 189.492,364.328 190.158,364.662 190.5,365.5C 189.673,366.439 189.006,366.105 188.5,364.5 Z"/></g>
<g><path style="opacity:0.075" fill="#620801" d="M 222.5,364.5 C 222.573,366.027 221.906,367.027 220.5,367.5C 220.427,365.973 221.094,364.973 222.5,364.5 Z"/></g>
<g><path style="opacity:0.498" fill="#a40206" d="M 181.5,373.5 C 178.189,372.189 175.855,369.855 174.5,366.5C 174.81,365.262 175.31,365.262 176,366.5C 177.666,368.996 179.5,371.329 181.5,373.5 Z"/></g>
<g><path style="opacity:0.937" fill="#330700" d="M 138.5,368.5 C 139.5,368.833 140.167,369.5 140.5,370.5C 140.565,370.938 140.399,371.272 140,371.5C 138.961,370.756 138.461,369.756 138.5,368.5 Z"/></g>
<g><path style="opacity:0.086" fill="#710002" d="M 219.5,369.5 C 218.415,371.587 216.749,372.92 214.5,373.5C 215.855,371.071 217.522,369.738 219.5,369.5 Z"/></g>
<g><path style="opacity:0.243" fill="#8c0505" d="M 478.5,379.5 C 477.358,375.883 475.692,372.55 473.5,369.5C 474.329,368.668 475.162,369.001 476,370.5C 477.303,372.94 478.47,375.44 479.5,378C 479.43,378.765 479.097,379.265 478.5,379.5 Z"/></g>
<g><path style="opacity:0.643" fill="#4f0a01" d="M 489.5,371.5 C 489.833,372.833 490.167,374.167 490.5,375.5C 488.481,374.462 488.147,373.128 489.5,371.5 Z"/></g>
<g><path style="opacity:0.118" fill="#5f0701" d="M 214.5,373.5 C 214.027,374.906 213.027,375.573 211.5,375.5C 211.973,374.094 212.973,373.427 214.5,373.5 Z"/></g>
<g><path style="opacity:0.635" fill="#850605" d="M 255.5,371.5 C 254.581,374.089 252.914,376.089 250.5,377.5C 251.419,374.911 253.086,372.911 255.5,371.5 Z"/></g>
<g><path style="opacity:0.106" fill="#7f0003" d="M 315.5,378.5 C 316.043,378.56 316.376,378.893 316.5,379.5C 315.933,381.982 315.266,384.316 314.5,386.5C 314.279,383.721 314.612,381.054 315.5,378.5 Z"/></g>
<g><path style="opacity:0.937" fill="#5c0607" d="M 169.5,394.5 C 170.791,394.263 171.791,394.596 172.5,395.5C 172.565,395.938 172.399,396.272 172,396.5C 171.005,395.934 170.172,395.267 169.5,394.5 Z"/></g>
<g><path style="opacity:0.361" fill="#480300" d="M 241.5,400.5 C 240.609,401.11 239.609,401.443 238.5,401.5C 239.221,399.618 240.221,399.285 241.5,400.5 Z"/></g>
<g><path style="opacity:0.855" fill="#620007" d="M 319.5,404.5 C 318.662,404.158 318.328,403.492 318.5,402.5C 318.435,402.062 318.601,401.728 319,401.5C 319.374,402.416 319.874,403.25 320.5,404C 320.272,404.399 319.938,404.565 319.5,404.5 Z"/></g>
<g><path style="opacity:0.235" fill="#390100" d="M 333.5,403.5 C 334.5,403.833 335.167,404.5 335.5,405.5C 334.761,405.631 334.094,405.464 333.5,405C 332.262,404.31 332.262,403.81 333.5,403.5 Z"/></g>
<g><path style="opacity:0.655" fill="#2e0700" d="M 231.5,405.5 C 230.292,406.234 228.959,406.567 227.5,406.5C 228.705,404.862 230.038,404.529 231.5,405.5 Z"/></g>
<g><path style="opacity:0.696" fill="#660b04" d="M 469.5,406.5 C 470.738,406.81 470.738,407.31 469.5,408C 468.584,408.374 467.75,408.874 467,409.5C 466.601,409.272 466.435,408.938 466.5,408.5C 467.29,407.599 468.29,406.932 469.5,406.5 Z"/></g>
<g><path style="opacity:0.188" fill="#510401" d="M 484.5,408.5 C 484.167,409.5 483.5,410.167 482.5,410.5C 482.461,409.244 482.961,408.244 484,407.5C 484.399,407.728 484.565,408.062 484.5,408.5 Z"/></g>
<g><path style="opacity:0.867" fill="#690702" d="M 175.5,409.5 C 175.735,408.903 176.235,408.57 177,408.5C 179.03,408.954 180.863,409.62 182.5,410.5C 180.097,410.552 177.764,410.219 175.5,409.5 Z"/></g>
<g><path style="opacity:0.149" fill="#930204" d="M 460.5,424.5 C 465.099,424.286 469.099,426.12 472.5,430C 472.272,430.399 471.938,430.565 471.5,430.5C 468.282,427.723 464.615,425.723 460.5,424.5 Z"/></g>
<g><path style="opacity:0.478" fill="#670704" d="M 327.5,456.5 C 328.931,457.78 329.598,459.447 329.5,461.5C 328.069,460.22 327.402,458.553 327.5,456.5 Z"/></g>
<g><path style="opacity:0.718" fill="#7f0205" d="M 491.5,451.5 C 491.721,454.279 491.388,456.946 490.5,459.5C 489.957,459.44 489.624,459.107 489.5,458.5C 490.067,456.018 490.734,453.684 491.5,451.5 Z"/></g>
<g><path style="opacity:0.925" fill="#270200" d="M 475.5,462.5 C 476.713,463.497 476.546,464.497 475,465.5C 474.601,465.272 474.435,464.938 474.5,464.5C 474.833,463.833 475.167,463.167 475.5,462.5 Z"/></g>
<g><path style="opacity:0.173" fill="#5d0402" d="M 331.5,464.5 C 333.5,465.833 335.167,467.5 336.5,469.5C 333.833,468.833 332.167,467.167 331.5,464.5 Z"/></g>
<g><path style="opacity:0.318" fill="#560000" d="M 320.5,468.5 C 321.906,468.973 322.573,469.973 322.5,471.5C 321.094,471.027 320.427,470.027 320.5,468.5 Z"/></g>
<g><path style="opacity:0.482" fill="#850506" d="M 9.5,474.5 C 7.74973,473.341 6.74973,471.674 6.5,469.5C 8.05371,470.144 9.05371,471.811 9.5,474.5 Z"/></g>
<g><path style="opacity:0.988" fill="#810406" d="M 19.5,468.5 C 22.3649,470.761 25.3649,472.761 28.5,474.5C 24.2234,474.209 21.2234,472.209 19.5,468.5 Z"/></g>
<g><path style="opacity:0.533" fill="#b20000" d="M 29.5,474.5 C 127.5,474.5 225.5,474.5 323.5,474.5C 227.679,475.826 129.679,475.826 29.5,474.5 Z"/></g>
</svg>
