<?xml version="1.0" encoding="UTF-8"?>
<!DOCTYPE svg PUBLIC "-//W3C//DTD SVG 1.1//EN" "http://www.w3.org/Graphics/SVG/1.1/DTD/svg11.dtd">
<svg xmlns="http://www.w3.org/2000/svg" version="1.1" width="512px" height="512px" style="shape-rendering:geometricPrecision; text-rendering:geometricPrecision; image-rendering:optimizeQuality; fill-rule:evenodd; clip-rule:evenodd" xmlns:xlink="http://www.w3.org/1999/xlink">
<g><path style="opacity:0.998" fill="#ed0000" d="M 207.5,-0.5 C 214.833,-0.5 222.167,-0.5 229.5,-0.5C 237.514,1.49693 245.181,4.6636 252.5,9C 256.695,12.0298 260.361,15.5298 263.5,19.5C 265.925,23.3523 268.591,27.019 271.5,30.5C 274.518,35.0272 276.684,40.0272 278,45.5C 280.481,62.2016 283.148,78.8683 286,95.5C 289.728,92.2615 293.561,89.2615 297.5,86.5C 300.764,84.9059 303.431,82.5725 305.5,79.5C 306.833,77.5 308.5,75.8333 310.5,74.5C 310.435,74.9382 310.601,75.2716 311,75.5C 311.833,74.6667 312.667,73.8333 313.5,73C 313.272,72.6012 312.938,72.4346 312.5,72.5C 338.316,47.3987 366.649,44.232 397.5,63C 401.057,65.7485 404.057,68.9152 406.5,72.5C 406.369,73.2389 406.536,73.9056 407,74.5C 407.69,75.7383 408.19,75.7383 408.5,74.5C 412.509,79.1773 415.509,84.5106 417.5,90.5C 416.957,90.56 416.624,90.8933 416.5,91.5C 417.136,93.78 418.136,95.78 419.5,97.5C 424.557,121.498 418.223,141.998 400.5,159C 403.647,159.881 406.647,161.047 409.5,162.5C 410.736,164.043 412.402,165.043 414.5,165.5C 415.107,165.376 415.44,165.043 415.5,164.5C 417.284,164.893 418.95,165.559 420.5,166.5C 421.736,168.043 423.402,169.043 425.5,169.5C 426.107,169.376 426.44,169.043 426.5,168.5C 428.284,168.893 429.95,169.559 431.5,170.5C 432.736,172.043 434.402,173.043 436.5,173.5C 437.107,173.376 437.44,173.043 437.5,172.5C 439.284,172.893 440.95,173.559 442.5,174.5C 444.32,176.448 446.654,177.448 449.5,177.5C 450.848,178.601 452.348,179.601 454,180.5C 454.399,180.272 454.565,179.938 454.5,179.5C 456.153,179.66 457.486,180.326 458.5,181.5C 457.262,181.81 457.262,182.31 458.5,183C 459.931,183.465 461.097,184.299 462,185.5C 462.399,185.272 462.565,184.938 462.5,184.5C 463.167,184.5 463.5,184.833 463.5,185.5C 465.423,188.603 467.59,191.603 470,194.5C 470.69,195.738 471.19,195.738 471.5,194.5C 475.593,200.105 477.926,206.438 478.5,213.5C 478.395,217.816 478.395,222.149 478.5,226.5C 477.922,231.165 476.589,235.499 474.5,239.5C 473.203,240.205 472.536,241.872 472.5,244.5C 471.602,249.534 469.935,254.201 467.5,258.5C 465.862,259.705 465.529,261.038 466.5,262.5C 466.34,264.153 465.674,265.486 464.5,266.5C 463.136,268.22 462.136,270.22 461.5,272.5C 461.624,273.107 461.957,273.44 462.5,273.5C 462.34,275.153 461.674,276.486 460.5,277.5C 458.655,278.995 458.322,280.662 459.5,282.5C 457.914,287.627 455.58,292.293 452.5,296.5C 452.565,296.062 452.399,295.728 452,295.5C 449.442,297.662 446.942,299.662 444.5,301.5C 437.996,300.999 431.663,299.666 425.5,297.5C 425.667,355.168 425.5,412.834 425,470.5C 424.205,480.077 420.705,488.41 414.5,495.5C 412.5,495.5 411.5,496.5 411.5,498.5C 405.377,504.894 398.044,509.228 389.5,511.5C 283.167,511.5 176.833,511.5 70.5,511.5C 66.4206,510.245 62.4206,508.578 58.5,506.5C 55.6104,503.375 52.2771,500.708 48.5,498.5C 47.8333,498.5 47.5,498.167 47.5,497.5C 47.9382,497.565 48.2716,497.399 48.5,497C 45.6962,493.855 43.0296,490.688 40.5,487.5C 37.4011,482.707 35.5678,477.373 35,471.5C 34.3333,398.833 34.3333,326.167 35,253.5C 37.2897,246.373 42.123,242.373 49.5,241.5C 124.332,242.666 199.332,242.832 274.5,242C 273.956,241.283 273.289,240.783 272.5,240.5C 252.613,234.093 232.946,227.093 213.5,219.5C 212.462,217.481 211.128,217.147 209.5,218.5C 181.5,208.167 153.5,197.833 125.5,187.5C 123.68,185.552 121.346,184.552 118.5,184.5C 91.315,175.244 64.315,165.411 37.5,155C 33.1091,150.871 31.4425,146.038 32.5,140.5C 34.4053,136.784 35.7387,132.784 36.5,128.5C 37.3982,123.466 39.0649,118.799 41.5,114.5C 42.8641,112.78 43.8641,110.78 44.5,108.5C 44.3764,107.893 44.0431,107.56 43.5,107.5C 43.9887,106.005 44.6554,104.671 45.5,103.5C 46.2674,102.828 46.9341,101.995 47.5,101C 47.2716,100.601 46.9382,100.435 46.5,100.5C 47.2163,97.4018 48.2163,94.4018 49.5,91.5C 51.3818,90.779 51.7152,89.779 50.5,88.5C 51.658,85.0111 52.9914,81.6777 54.5,78.5C 54.4346,78.9382 54.6012,79.2716 55,79.5C 55.3742,78.5838 55.8742,77.7504 56.5,77C 56.2716,76.6012 55.9382,76.4346 55.5,76.5C 58.3246,70.0021 62.6579,64.6687 68.5,60.5C 68.4346,60.9382 68.6012,61.2716 69,61.5C 73.6862,58.4103 78.5196,55.7436 83.5,53.5C 84.6085,52.71 85.9419,52.21 87.5,52C 102.136,50.5791 115.803,53.4124 128.5,60.5C 130.22,61.8641 132.22,62.8641 134.5,63.5C 135.107,63.3764 135.44,63.0431 135.5,62.5C 136.167,62.5 136.5,62.8333 136.5,63.5C 138.22,64.8641 140.22,65.8641 142.5,66.5C 143.107,66.3764 143.44,66.0431 143.5,65.5C 148.032,67.0663 152.532,68.7329 157,70.5C 155.584,55.8479 158.417,42.1812 165.5,29.5C 167.074,29.0629 168.241,28.0629 169,26.5C 169.692,25.5632 169.525,24.8966 168.5,24.5C 171.5,19.5 175.5,15.5 180.5,12.5C 183.198,12.1551 185.198,10.8218 186.5,8.5C 188.027,8.57298 189.027,7.90632 189.5,6.5C 195.212,3.37464 201.212,1.04131 207.5,-0.5 Z M 223.5,30.5 C 226.112,31.3705 228.779,32.0372 231.5,32.5C 231.842,33.3382 232.508,33.6716 233.5,33.5C 233.973,34.9063 234.973,35.573 236.5,35.5C 237.167,36.8333 238.167,37.8333 239.5,38.5C 243.628,43.0867 246.461,48.4201 248,54.5C 250.994,71.7893 253.327,89.1226 255,106.5C 253.67,105.418 252.17,104.751 250.5,104.5C 249.292,103.766 247.959,103.433 246.5,103.5C 245.07,102.463 243.403,101.796 241.5,101.5C 240.791,100.596 239.791,100.263 238.5,100.5C 236.064,99.129 233.397,98.129 230.5,97.5C 229.791,96.596 228.791,96.2627 227.5,96.5C 225.351,95.2638 223.018,94.2638 220.5,93.5C 218.299,92.4336 215.965,91.767 213.5,91.5C 192.147,84.1306 184.48,69.4639 190.5,47.5C 191.401,46.7095 192.068,45.7095 192.5,44.5C 194.471,42.1918 196.471,39.8585 198.5,37.5C 199.5,37.1667 200.167,36.5 200.5,35.5C 207.647,30.9897 215.314,29.323 223.5,30.5 Z M 380.5,89.5 C 381.833,91.5 383.5,93.1667 385.5,94.5C 385.557,95.609 385.89,96.609 386.5,97.5C 394.7,117.396 389.034,131.896 369.5,141C 363.543,142.829 357.543,142.996 351.5,141.5C 349.321,140.323 346.987,139.323 344.5,138.5C 342.254,137.545 339.921,136.878 337.5,136.5C 336.791,135.596 335.791,135.263 334.5,135.5C 330.201,133.065 325.534,131.398 320.5,130.5C 318.208,128.733 315.542,127.733 312.5,127.5C 310.351,126.264 308.018,125.264 305.5,124.5C 304.527,124.013 303.527,123.513 302.5,123C 303.381,122.292 304.047,121.458 304.5,120.5C 305.872,119.488 307.205,118.488 308.5,117.5C 309.833,116.833 310.833,115.833 311.5,114.5C 319.192,107.804 326.859,101.138 334.5,94.5C 336.5,93.1667 338.167,91.5 339.5,89.5C 340.492,89.6716 341.158,89.3382 341.5,88.5C 342.5,88.1667 343.167,87.5 343.5,86.5C 356.506,79.5026 368.839,80.5026 380.5,89.5 Z M 91.5,82.5 C 96.7046,82.1336 101.705,82.9669 106.5,85C 133.234,94.7435 159.9,104.577 186.5,114.5C 187.833,114.833 189.167,115.167 190.5,115.5C 192.915,116.305 195.249,117.305 197.5,118.5C 198.833,118.833 200.167,119.167 201.5,119.5C 203.915,120.305 206.249,121.305 208.5,122.5C 209.833,122.833 211.167,123.167 212.5,123.5C 217.449,125.198 222.116,127.365 226.5,130C 222.859,139.757 219.526,149.59 216.5,159.5C 214.795,162.261 213.462,165.261 212.5,168.5C 210.871,173.735 208.871,178.735 206.5,183.5C 205.5,183.5 204.5,183.5 203.5,183.5C 195.122,179.654 186.456,176.32 177.5,173.5C 175.579,172.637 173.579,171.971 171.5,171.5C 169.95,170.559 168.284,169.893 166.5,169.5C 164.579,168.637 162.579,167.971 160.5,167.5C 158.95,166.559 157.284,165.893 155.5,165.5C 153.579,164.637 151.579,163.971 149.5,163.5C 133.28,157.225 116.946,151.225 100.5,145.5C 99.2921,144.766 97.9587,144.433 96.5,144.5C 90.9852,141.99 85.3186,139.656 79.5,137.5C 77.8828,136.962 76.2161,136.629 74.5,136.5C 72.0987,135.461 69.7654,134.127 67.5,132.5C 72.9017,117.795 78.4017,103.128 84,88.5C 85.7297,86.5981 87.563,84.9314 89.5,83.5C 90.4916,83.6716 91.1583,83.3382 91.5,82.5 Z M 257.5,139.5 C 263.267,142.204 269.267,144.538 275.5,146.5C 276.391,147.11 277.391,147.443 278.5,147.5C 279.766,148.09 281.099,148.59 282.5,149C 283.598,149.77 283.598,150.603 282.5,151.5C 281.637,153.421 280.971,155.421 280.5,157.5C 277.167,166.5 273.833,175.5 270.5,184.5C 269.434,186.701 268.767,189.035 268.5,191.5C 266.5,195.833 264.5,200.167 262.5,204.5C 261.292,203.766 259.959,203.433 258.5,203.5C 257.71,202.599 256.71,201.932 255.5,201.5C 252.888,200.629 250.221,199.963 247.5,199.5C 246.486,198.326 245.153,197.66 243.5,197.5C 242.292,196.766 240.959,196.433 239.5,196.5C 238.791,195.596 237.791,195.263 236.5,195.5C 237.099,192.037 238.099,188.704 239.5,185.5C 240.566,183.299 241.233,180.965 241.5,178.5C 246.268,167.869 250.268,156.869 253.5,145.5C 254.653,143.364 255.986,141.364 257.5,139.5 Z M 447.5,225.5 C 445.795,228.261 444.462,231.261 443.5,234.5C 443.5,235.167 443.5,235.833 443.5,236.5C 441.6,239.518 440.267,242.851 439.5,246.5C 436.91,253.099 434.41,259.766 432,266.5C 430.67,265.418 429.17,264.751 427.5,264.5C 425.579,263.637 423.579,262.971 421.5,262.5C 401.312,254.771 380.979,247.437 360.5,240.5C 359.791,239.596 358.791,239.263 357.5,239.5C 355.11,237.98 352.443,236.98 349.5,236.5C 348.791,235.596 347.791,235.263 346.5,235.5C 344.11,233.98 341.443,232.98 338.5,232.5C 337.791,231.596 336.791,231.263 335.5,231.5C 324.869,226.732 313.869,222.732 302.5,219.5C 301.22,218.069 299.553,217.402 297.5,217.5C 296.329,216.655 294.995,215.989 293.5,215.5C 292.662,215.158 292.328,214.492 292.5,213.5C 293.674,212.486 294.34,211.153 294.5,209.5C 295.566,207.299 296.233,204.965 296.5,202.5C 301.933,189.049 307.099,175.382 312,161.5C 312.561,160.978 313.228,160.645 314,160.5C 356.987,175.94 399.821,191.773 442.5,208C 447.528,212.913 449.195,218.747 447.5,225.5 Z M 76.5,480.5 C 72.2512,478.912 68.9179,476.245 66.5,472.5C 65.5103,405.862 65.177,339.196 65.5,272.5C 105.167,272.5 144.833,272.5 184.5,272.5C 184.5,342.167 184.5,411.833 184.5,481.5C 148.469,481.814 112.469,481.481 76.5,480.5 Z M 215.5,272.5 C 225.167,272.5 234.833,272.5 244.5,272.5C 244.5,342.167 244.5,411.833 244.5,481.5C 234.833,481.5 225.167,481.5 215.5,481.5C 215.5,411.833 215.5,342.167 215.5,272.5 Z M 386.5,479.5 C 385.508,479.328 384.842,479.662 384.5,480.5C 348.191,481.474 311.858,481.808 275.5,481.5C 275.5,411.833 275.5,342.167 275.5,272.5C 303.835,272.333 332.169,272.5 360.5,273C 371.539,277.068 382.539,281.235 393.5,285.5C 394.667,346.497 394.833,407.497 394,468.5C 392.974,473.233 390.474,476.899 386.5,479.5 Z"/></g>
<g><path style="opacity:0.776" fill="#650306" d="M 189.5,6.5 C 189.027,7.90632 188.027,8.57298 186.5,8.5C 186.973,7.09368 187.973,6.42702 189.5,6.5 Z"/></g>
<g><path style="opacity:0.788" fill="#860306" d="M 186.5,8.5 C 185.198,10.8218 183.198,12.1551 180.5,12.5C 182.147,10.6736 184.147,9.34026 186.5,8.5 Z"/></g>
<g><path style="opacity:0.973" fill="#7e0304" d="M 263.5,19.5 C 267.387,22.2724 270.054,25.9391 271.5,30.5C 268.591,27.019 265.925,23.3523 263.5,19.5 Z"/></g>
<g><path style="opacity:0.973" fill="#890202" d="M 168.5,24.5 C 169.525,24.8966 169.692,25.5632 169,26.5C 168.241,28.0629 167.074,29.0629 165.5,29.5C 166.248,27.6675 167.248,26.0009 168.5,24.5 Z"/></g>
<g><path style="opacity:0.776" fill="#840605" d="M 223.5,30.5 C 226.38,29.6701 229.046,30.3368 231.5,32.5C 228.779,32.0372 226.112,31.3705 223.5,30.5 Z"/></g>
<g><path style="opacity:0.882" fill="#530600" d="M 233.5,33.5 C 235.027,33.427 236.027,34.0937 236.5,35.5C 234.973,35.573 233.973,34.9063 233.5,33.5 Z"/></g>
<g><path style="opacity:0.051" fill="#4f0500" d="M 200.5,35.5 C 200.167,36.5 199.5,37.1667 198.5,37.5C 198.369,36.7611 198.536,36.0944 199,35.5C 199.69,34.2617 200.19,34.2617 200.5,35.5 Z"/></g>
<g><path style="opacity:0.086" fill="#5c0200" d="M 236.5,35.5 C 238.196,35.6854 239.529,36.5187 240.5,38C 240.272,38.3988 239.938,38.5654 239.5,38.5C 238.167,37.8333 237.167,36.8333 236.5,35.5 Z"/></g>
<g><path style="opacity:0.137" fill="#5f0401" d="M 192.5,44.5 C 192.068,45.7095 191.401,46.7095 190.5,47.5C 190.285,45.8212 190.952,44.8212 192.5,44.5 Z"/></g>
<g><path style="opacity:0.98" fill="#a50303" d="M 83.5,53.5 C 78.5196,55.7436 73.6862,58.4103 69,61.5C 68.6012,61.2716 68.4346,60.9382 68.5,60.5C 72.8246,56.8391 77.8246,54.5058 83.5,53.5 Z"/></g>
<g><path style="opacity:0.353" fill="#8f0104" d="M 128.5,60.5 C 130.965,60.767 133.299,61.4336 135.5,62.5C 135.44,63.0431 135.107,63.3764 134.5,63.5C 132.22,62.8641 130.22,61.8641 128.5,60.5 Z"/></g>
<g><path style="opacity:0.345" fill="#890004" d="M 136.5,63.5 C 138.965,63.767 141.299,64.4336 143.5,65.5C 143.44,66.0431 143.107,66.3764 142.5,66.5C 140.22,65.8641 138.22,64.8641 136.5,63.5 Z"/></g>
<g><path style="opacity:0.761" fill="#500e08" d="M 312.5,72.5 C 312.938,72.4346 313.272,72.6012 313.5,73C 312.667,73.8333 311.833,74.6667 311,75.5C 310.601,75.2716 310.435,74.9382 310.5,74.5C 310.833,73.5 311.5,72.8333 312.5,72.5 Z"/></g>
<g><path style="opacity:0.851" fill="#300500" d="M 406.5,72.5 C 407.5,72.8333 408.167,73.5 408.5,74.5C 408.19,75.7383 407.69,75.7383 407,74.5C 406.536,73.9056 406.369,73.2389 406.5,72.5 Z"/></g>
<g><path style="opacity:0.427" fill="#450702" d="M 55.5,76.5 C 55.9382,76.4346 56.2716,76.6012 56.5,77C 55.8742,77.7504 55.3742,78.5838 55,79.5C 54.6012,79.2716 54.4346,78.9382 54.5,78.5C 54.3284,77.5084 54.6618,76.8417 55.5,76.5 Z"/></g>
<g><path style="opacity:0.051" fill="#460500" d="M 91.5,82.5 C 91.1583,83.3382 90.4916,83.6716 89.5,83.5C 89.0618,83.5654 88.7284,83.3988 88.5,83C 89.4162,82.6258 90.2496,82.1258 91,81.5C 91.3988,81.7284 91.5654,82.0618 91.5,82.5 Z"/></g>
<g><path style="opacity:0.871" fill="#7d0504" d="M 305.5,79.5 C 303.431,82.5725 300.764,84.9059 297.5,86.5C 299.569,83.4275 302.236,81.0941 305.5,79.5 Z"/></g>
<g><path style="opacity:0.506" fill="#240400" d="M 343.5,86.5 C 343.167,87.5 342.5,88.1667 341.5,88.5C 341.5,87.1667 342.167,86.5 343.5,86.5 Z"/></g>
<g><path style="opacity:0.941" fill="#670706" d="M 50.5,88.5 C 51.7152,89.779 51.3818,90.779 49.5,91.5C 49.5569,90.391 49.8902,89.391 50.5,88.5 Z"/></g>
<g><path style="opacity:0.047" fill="#6d0403" d="M 385.5,94.5 C 383.5,93.1667 381.833,91.5 380.5,89.5C 380.435,89.0618 380.601,88.7284 381,88.5C 383.127,90.1137 384.627,92.1137 385.5,94.5 Z"/></g>
<g><path style="opacity:0.976" fill="#7a0d05" d="M 213.5,91.5 C 215.965,91.767 218.299,92.4336 220.5,93.5C 220.44,94.0431 220.107,94.3764 219.5,94.5C 217.22,93.8641 215.22,92.8641 213.5,91.5 Z"/></g>
<g><path style="opacity:0.047" fill="#760403" d="M 339.5,89.5 C 338.167,91.5 336.5,93.1667 334.5,94.5C 334.062,94.5654 333.728,94.3988 333.5,94C 335.114,91.8733 337.114,90.3733 339.5,89.5 Z"/></g>
<g><path style="opacity:0.722" fill="#840002" d="M 417.5,90.5 C 418.566,92.7014 419.233,95.0347 419.5,97.5C 418.136,95.78 417.136,93.78 416.5,91.5C 416.624,90.8933 416.957,90.56 417.5,90.5 Z"/></g>
<g><path style="opacity:0.102" fill="#2f0300" d="M 385.5,94.5 C 387.382,95.221 387.715,96.221 386.5,97.5C 385.89,96.609 385.557,95.609 385.5,94.5 Z"/></g>
<g><path style="opacity:0.314" fill="#4d0707" d="M 227.5,96.5 C 228.791,96.2627 229.791,96.596 230.5,97.5C 230.565,97.9382 230.399,98.2716 230,98.5C 229.005,97.9341 228.172,97.2674 227.5,96.5 Z"/></g>
<g><path style="opacity:0.925" fill="#3e1207" d="M 238.5,100.5 C 239.791,100.263 240.791,100.596 241.5,101.5C 241.565,101.938 241.399,102.272 241,102.5C 240.005,101.934 239.172,101.267 238.5,100.5 Z"/></g>
<g><path style="opacity:0.71" fill="#530003" d="M 46.5,100.5 C 46.9382,100.435 47.2716,100.601 47.5,101C 46.9341,101.995 46.2674,102.828 45.5,103.5C 45.2627,102.209 45.596,101.209 46.5,100.5 Z"/></g>
<g><path style="opacity:0.618" fill="#5a0701" d="M 246.5,103.5 C 247.959,103.433 249.292,103.766 250.5,104.5C 249.038,105.471 247.705,105.138 246.5,103.5 Z"/></g>
<g><path style="opacity:0.882" fill="#850104" d="M 43.5,107.5 C 44.0431,107.56 44.3764,107.893 44.5,108.5C 43.8641,110.78 42.8641,112.78 41.5,114.5C 41.767,112.035 42.4336,109.701 43.5,107.5 Z"/></g>
<g><path style="opacity:0.639" fill="#5d0602" d="M 186.5,114.5 C 188.128,113.147 189.462,113.481 190.5,115.5C 189.167,115.167 187.833,114.833 186.5,114.5 Z"/></g>
<g><path style="opacity:0.475" fill="#530100" d="M 311.5,114.5 C 310.833,115.833 309.833,116.833 308.5,117.5C 308.062,117.565 307.728,117.399 307.5,117C 308.471,115.519 309.804,114.685 311.5,114.5 Z"/></g>
<g><path style="opacity:0.373" fill="#510001" d="M 197.5,118.5 C 199.128,117.147 200.462,117.481 201.5,119.5C 200.167,119.167 198.833,118.833 197.5,118.5 Z"/></g>
<g><path style="opacity:0.512" fill="#880002" d="M 304.5,120.5 C 304.047,121.458 303.381,122.292 302.5,123C 303.527,123.513 304.527,124.013 305.5,124.5C 303.737,125.334 302.07,124.834 300.5,123C 301.471,121.519 302.804,120.685 304.5,120.5 Z"/></g>
<g><path style="opacity:0.373" fill="#570001" d="M 208.5,122.5 C 210.128,121.147 211.462,121.481 212.5,123.5C 211.167,123.167 209.833,122.833 208.5,122.5 Z"/></g>
<g><path style="opacity:0.961" fill="#780203" d="M 312.5,127.5 C 315.542,127.733 318.208,128.733 320.5,130.5C 317.458,130.267 314.792,129.267 312.5,127.5 Z"/></g>
<g><path style="opacity:0.4" fill="#640001" d="M 334.5,135.5 C 335.791,135.263 336.791,135.596 337.5,136.5C 337.565,136.938 337.399,137.272 337,137.5C 336.005,136.934 335.172,136.267 334.5,135.5 Z"/></g>
<g><path style="opacity:0.984" fill="#940804" d="M 36.5,128.5 C 35.7387,132.784 34.4053,136.784 32.5,140.5C 32.8606,136.085 34.1939,132.085 36.5,128.5 Z"/></g>
<g><path style="opacity:0.639" fill="#5d0100" d="M 74.5,136.5 C 76.2161,136.629 77.8828,136.962 79.5,137.5C 77.6621,138.678 75.9955,138.345 74.5,136.5 Z"/></g>
<g><path style="opacity:0.047" fill="#880404" d="M 344.5,138.5 C 346.987,139.323 349.321,140.323 351.5,141.5C 351.565,141.938 351.399,142.272 351,142.5C 349.43,141.642 347.763,140.975 346,140.5C 344.97,140.164 344.47,139.497 344.5,138.5 Z"/></g>
<g><path style="opacity:0.608" fill="#710606" d="M 257.5,139.5 C 255.986,141.364 254.653,143.364 253.5,145.5C 253.687,143.436 254.187,141.436 255,139.5C 255.977,138.226 256.811,138.226 257.5,139.5 Z"/></g>
<g><path style="opacity:0.4" fill="#5c0000" d="M 96.5,144.5 C 97.9587,144.433 99.2921,144.766 100.5,145.5C 99.0379,146.471 97.7046,146.138 96.5,144.5 Z"/></g>
<g><path style="opacity:0.969" fill="#6a1006" d="M 275.5,146.5 C 276.779,145.285 277.779,145.618 278.5,147.5C 277.391,147.443 276.391,147.11 275.5,146.5 Z"/></g>
<g><path style="opacity:0.941" fill="#780606" d="M 282.5,151.5 C 283.043,151.56 283.376,151.893 283.5,152.5C 283.043,154.598 282.043,156.264 280.5,157.5C 280.971,155.421 281.637,153.421 282.5,151.5 Z"/></g>
<g><path style="opacity:0.733" fill="#750804" d="M 409.5,162.5 C 411.579,162.971 413.579,163.637 415.5,164.5C 415.44,165.043 415.107,165.376 414.5,165.5C 412.402,165.043 410.736,164.043 409.5,162.5 Z"/></g>
<g><path style="opacity:0.733" fill="#750804" d="M 149.5,163.5 C 151.579,163.971 153.579,164.637 155.5,165.5C 155.44,166.043 155.107,166.376 154.5,166.5C 152.402,166.043 150.736,165.043 149.5,163.5 Z"/></g>
<g><path style="opacity:0.953" fill="#7f0104" d="M 216.5,159.5 C 216.289,163.182 214.956,166.182 212.5,168.5C 213.462,165.261 214.795,162.261 216.5,159.5 Z"/></g>
<g><path style="opacity:0.733" fill="#860905" d="M 420.5,166.5 C 422.579,166.971 424.579,167.637 426.5,168.5C 426.44,169.043 426.107,169.376 425.5,169.5C 423.402,169.043 421.736,168.043 420.5,166.5 Z"/></g>
<g><path style="opacity:0.733" fill="#860905" d="M 160.5,167.5 C 162.579,167.971 164.579,168.637 166.5,169.5C 166.44,170.043 166.107,170.376 165.5,170.5C 163.402,170.043 161.736,169.043 160.5,167.5 Z"/></g>
<g><path style="opacity:0.733" fill="#860905" d="M 431.5,170.5 C 433.579,170.971 435.579,171.637 437.5,172.5C 437.44,173.043 437.107,173.376 436.5,173.5C 434.402,173.043 432.736,172.043 431.5,170.5 Z"/></g>
<g><path style="opacity:0.733" fill="#860905" d="M 171.5,171.5 C 173.579,171.971 175.579,172.637 177.5,173.5C 177.44,174.043 177.107,174.376 176.5,174.5C 174.402,174.043 172.736,173.043 171.5,171.5 Z"/></g>
<g><path style="opacity:0.733" fill="#870907" d="M 442.5,174.5 C 445.157,174.935 447.491,175.935 449.5,177.5C 446.654,177.448 444.32,176.448 442.5,174.5 Z"/></g>
<g><path style="opacity:0.553" fill="#580101" d="M 449.5,177.5 C 451.553,177.402 453.22,178.069 454.5,179.5C 454.565,179.938 454.399,180.272 454,180.5C 452.348,179.601 450.848,178.601 449.5,177.5 Z"/></g>
<g><path style="opacity:0.075" fill="#770604" d="M 241.5,178.5 C 241.233,180.965 240.566,183.299 239.5,185.5C 238.957,185.44 238.624,185.107 238.5,184.5C 239.136,182.22 240.136,180.22 241.5,178.5 Z"/></g>
<g><path style="opacity:0.698" fill="#890204" d="M 458.5,181.5 C 460.23,182.026 461.564,183.026 462.5,184.5C 462.565,184.938 462.399,185.272 462,185.5C 461.097,184.299 459.931,183.465 458.5,183C 457.262,182.31 457.262,181.81 458.5,181.5 Z"/></g>
<g><path style="opacity:0.522" fill="#7f0605" d="M 118.5,184.5 C 121.346,184.552 123.68,185.552 125.5,187.5C 122.843,187.065 120.509,186.065 118.5,184.5 Z"/></g>
<g><path style="opacity:0.976" fill="#6b0902" d="M 203.5,183.5 C 204.5,183.5 205.5,183.5 206.5,183.5C 207.463,184.363 207.463,185.03 206.5,185.5C 205.261,185.058 204.261,184.391 203.5,183.5 Z"/></g>
<g><path style="opacity:0.957" fill="#780704" d="M 463.5,185.5 C 466.881,187.88 469.547,190.88 471.5,194.5C 471.19,195.738 470.69,195.738 470,194.5C 467.59,191.603 465.423,188.603 463.5,185.5 Z"/></g>
<g><path style="opacity:0.345" fill="#7d0005" d="M 270.5,184.5 C 271.043,184.56 271.376,184.893 271.5,185.5C 270.864,187.78 269.864,189.78 268.5,191.5C 268.767,189.035 269.434,186.701 270.5,184.5 Z"/></g>
<g><path style="opacity:0.937" fill="#510806" d="M 239.5,196.5 C 240.959,196.433 242.292,196.766 243.5,197.5C 242.038,198.471 240.705,198.138 239.5,196.5 Z"/></g>
<g><path style="opacity:0.933" fill="#500804" d="M 247.5,199.5 C 250.221,199.963 252.888,200.629 255.5,201.5C 252.62,202.33 249.954,201.663 247.5,199.5 Z"/></g>
<g><path style="opacity:0.618" fill="#5a0701" d="M 258.5,203.5 C 259.959,203.433 261.292,203.766 262.5,204.5C 261.038,205.471 259.705,205.138 258.5,203.5 Z"/></g>
<g><path style="opacity:0.706" fill="#880004" d="M 296.5,202.5 C 296.233,204.965 295.566,207.299 294.5,209.5C 293.957,209.44 293.624,209.107 293.5,208.5C 294.136,206.22 295.136,204.22 296.5,202.5 Z"/></g>
<g><path style="opacity:0.427" fill="#3f0400" d="M 292.5,213.5 C 292.328,214.492 292.662,215.158 293.5,215.5C 292.698,216.885 292.031,216.718 291.5,215C 291.57,214.235 291.903,213.735 292.5,213.5 Z"/></g>
<g><path style="opacity:0.6" fill="#560604" d="M 297.5,217.5 C 299.553,217.402 301.22,218.069 302.5,219.5C 299.872,219.464 298.205,218.797 297.5,217.5 Z"/></g>
<g><path style="opacity:0.051" fill="#4a0000" d="M 209.5,218.5 C 211.128,217.147 212.462,217.481 213.5,219.5C 212.167,219.167 210.833,218.833 209.5,218.5 Z"/></g>
<g><path style="opacity:0.11" fill="#990005" d="M 478.5,213.5 C 479.754,217.818 479.754,222.152 478.5,226.5C 478.395,222.149 478.395,217.816 478.5,213.5 Z"/></g>
<g><path style="opacity:0.953" fill="#7e0304" d="M 447.5,225.5 C 447.289,229.182 445.956,232.182 443.5,234.5C 444.462,231.261 445.795,228.261 447.5,225.5 Z"/></g>
<g><path style="opacity:0.4" fill="#640001" d="M 335.5,231.5 C 336.791,231.263 337.791,231.596 338.5,232.5C 338.565,232.938 338.399,233.272 338,233.5C 337.005,232.934 336.172,232.267 335.5,231.5 Z"/></g>
<g><path style="opacity:0.4" fill="#640001" d="M 346.5,235.5 C 347.791,235.263 348.791,235.596 349.5,236.5C 349.565,236.938 349.399,237.272 349,237.5C 348.005,236.934 347.172,236.267 346.5,235.5 Z"/></g>
<g><path style="opacity:0.4" fill="#640001" d="M 357.5,239.5 C 358.791,239.263 359.791,239.596 360.5,240.5C 360.565,240.938 360.399,241.272 360,241.5C 359.005,240.934 358.172,240.267 357.5,239.5 Z"/></g>
<g><path style="opacity:0.6" fill="#470000" d="M 272.5,240.5 C 273.289,240.783 273.956,241.283 274.5,242C 199.332,242.832 124.332,242.666 49.5,241.5C 124.002,241.833 198.335,241.499 272.5,240.5 Z"/></g>
<g><path style="opacity:0.51" fill="#550305" d="M 474.5,239.5 C 474.598,241.553 473.931,243.22 472.5,244.5C 472.536,241.872 473.203,240.205 474.5,239.5 Z"/></g>
<g><path style="opacity:0.988" fill="#8a0505" d="M 443.5,236.5 C 443.118,240.332 441.785,243.665 439.5,246.5C 440.267,242.851 441.6,239.518 443.5,236.5 Z"/></g>
<g><path style="opacity:0.592" fill="#3f0703" d="M 467.5,258.5 C 467.567,259.959 467.234,261.292 466.5,262.5C 465.529,261.038 465.862,259.705 467.5,258.5 Z"/></g>
<g><path style="opacity:0.733" fill="#750804" d="M 421.5,262.5 C 423.579,262.971 425.579,263.637 427.5,264.5C 427.44,265.043 427.107,265.376 426.5,265.5C 424.402,265.043 422.736,264.043 421.5,262.5 Z"/></g>
<g><path style="opacity:0.075" fill="#6a0904" d="M 464.5,266.5 C 464.233,268.965 463.566,271.299 462.5,273.5C 461.957,273.44 461.624,273.107 461.5,272.5C 462.136,270.22 463.136,268.22 464.5,266.5 Z"/></g>
<g><path style="opacity:0.075" fill="#660b02" d="M 460.5,277.5 C 460.371,279.216 460.038,280.883 459.5,282.5C 458.322,280.662 458.655,278.995 460.5,277.5 Z"/></g>
<g><path style="opacity:0.09" fill="#820707" d="M 452.5,296.5 C 450.511,299.166 447.844,300.833 444.5,301.5C 446.942,299.662 449.442,297.662 452,295.5C 452.399,295.728 452.565,296.062 452.5,296.5 Z"/></g>
<g><path style="opacity:0.361" fill="#920706" d="M 66.5,472.5 C 68.9179,476.245 72.2512,478.912 76.5,480.5C 71.3115,480.689 67.9781,478.022 66.5,472.5 Z"/></g>
<g><path style="opacity:0.373" fill="#670006" d="M 386.5,479.5 C 386.938,479.435 387.272,479.601 387.5,480C 386.584,480.374 385.75,480.874 385,481.5C 384.601,481.272 384.435,480.938 384.5,480.5C 384.842,479.662 385.508,479.328 386.5,479.5 Z"/></g>
<g><path style="opacity:0.996" fill="#a70103" d="M 40.5,487.5 C 43.0296,490.688 45.6962,493.855 48.5,497C 48.2716,497.399 47.9382,497.565 47.5,497.5C 44.1848,494.875 41.8514,491.542 40.5,487.5 Z"/></g>
<g><path style="opacity:0.239" fill="#500401" d="M 414.5,495.5 C 413.833,496.833 412.833,497.833 411.5,498.5C 411.5,496.5 412.5,495.5 414.5,495.5 Z"/></g>
<g><path style="opacity:0.494" fill="#8d0806" d="M 48.5,498.5 C 52.2771,500.708 55.6104,503.375 58.5,506.5C 54.3972,504.784 51.0639,502.117 48.5,498.5 Z"/></g>
</svg>
