<?xml version="1.0" encoding="UTF-8"?>
<!DOCTYPE svg PUBLIC "-//W3C//DTD SVG 1.1//EN" "http://www.w3.org/Graphics/SVG/1.1/DTD/svg11.dtd">
<svg xmlns="http://www.w3.org/2000/svg" version="1.1" width="512px" height="512px" style="shape-rendering:geometricPrecision; text-rendering:geometricPrecision; image-rendering:optimizeQuality; fill-rule:evenodd; clip-rule:evenodd" xmlns:xlink="http://www.w3.org/1999/xlink">
<g><path style="opacity:0.965" fill="#f30000" d="M 244.5,-0.5 C 251.833,-0.5 259.167,-0.5 266.5,-0.5C 274.06,1.41469 281.393,4.24803 288.5,8C 293.339,11.1939 294.506,15.3606 292,20.5C 290.147,22.5924 287.814,23.5924 285,23.5C 278.487,20.336 271.654,17.836 264.5,16C 231.42,13.7438 212.754,29.0771 208.5,62C 209.617,78.5731 216.95,91.5731 230.5,101C 247.167,101.667 263.833,101.667 280.5,101C 299.872,86.8845 306.038,68.3845 299,45.5C 296.71,36.2115 300.21,32.3782 309.5,34C 312.663,35.4798 314.496,37.9798 315,41.5C 321.319,63.1359 317.819,82.9693 304.5,101C 327.5,101.333 350.5,101.667 373.5,102C 388.884,102.766 399.384,110.266 405,124.5C 406.409,135.77 406.909,147.104 406.5,158.5C 423.747,162.978 430.247,173.978 426,191.5C 422.508,200.487 416.008,205.487 406.5,206.5C 406.334,212.509 406.501,218.509 407,224.5C 408.35,229.185 411.183,232.685 415.5,235C 452.51,251.028 473.01,279.195 477,319.5C 477.667,353.5 477.667,387.5 477,421.5C 470.363,471.299 442.53,501.299 393.5,511.5C 301.5,511.5 209.5,511.5 117.5,511.5C 68.47,501.299 40.6367,471.299 34,421.5C 33.3333,387.5 33.3333,353.5 34,319.5C 37.9901,279.195 58.4901,251.028 95.5,235C 99.8168,232.685 102.65,229.185 104,224.5C 104.499,218.509 104.666,212.509 104.5,206.5C 91.1632,204.157 84.1632,196.157 83.5,182.5C 84.4862,169.173 91.4862,161.173 104.5,158.5C 104.091,147.104 104.591,135.77 106,124.5C 111.616,110.266 122.116,102.766 137.5,102C 160.5,101.667 183.5,101.333 206.5,101C 188.871,76.4405 188.038,51.2738 204,25.5C 214.409,11.8869 227.909,3.22026 244.5,-0.5 Z M 136.5,117.5 C 215.834,117.333 295.167,117.5 374.5,118C 382.254,118.96 387.42,123.127 390,130.5C 390.5,139.827 390.666,149.161 390.5,158.5C 300.5,158.5 210.5,158.5 120.5,158.5C 120.334,149.161 120.5,139.827 121,130.5C 123.811,123.2 128.977,118.867 136.5,117.5 Z M 104.5,174.5 C 205.167,174.333 305.834,174.5 406.5,175C 411.312,178.13 412.479,182.296 410,187.5C 408.2,189.317 406.034,190.484 403.5,191C 326.5,191.333 249.5,191.667 172.5,192C 167.167,196.667 167.167,201.333 172.5,206C 245.166,206.5 317.833,206.667 390.5,206.5C 389.954,215.652 390.788,224.652 393,233.5C 395.729,239.563 399.896,244.397 405.5,248C 438.253,260.755 456.753,284.588 461,319.5C 461.667,353.167 461.667,386.833 461,420.5C 459.014,443.472 449.348,462.472 432,477.5C 443.772,447.694 437.939,421.861 414.5,400C 401.526,390.287 386.859,385.453 370.5,385.5C 368.024,382.09 364.69,379.924 360.5,379C 356.179,378.501 351.846,378.334 347.5,378.5C 347.666,369.827 347.5,361.16 347,352.5C 344.833,346.333 340.667,342.167 334.5,340C 319.833,339.333 305.167,339.333 290.5,340C 283.679,345.394 284.013,350.394 291.5,355C 304.5,355.333 317.5,355.667 330.5,356C 331.833,363.333 331.833,370.667 330.5,378C 300.167,378.667 269.833,378.667 239.5,378C 238.354,370.914 238.188,363.747 239,356.5C 246.421,355.684 253.921,355.184 261.5,355C 266.738,351.726 267.904,347.226 265,341.5C 230.214,331.95 216.214,344.95 223,380.5C 224.833,387.667 229.333,392.167 236.5,394C 240.821,394.499 245.154,394.666 249.5,394.5C 249.5,402.167 249.5,409.833 249.5,417.5C 246.5,417.5 243.5,417.5 240.5,417.5C 240.577,411.819 238.577,406.985 234.5,403C 227.663,398.747 220.663,394.747 213.5,391C 204.559,388.09 197.059,390.257 191,397.5C 186,406.167 181,414.833 176,423.5C 173.623,417.238 170.123,411.738 165.5,407C 160.092,404.556 154.426,403.89 148.5,405C 121.167,417.333 93.8333,429.667 66.5,442C 63,444.167 60.1667,447 58,450.5C 53.4602,441.008 50.7936,431.008 50,420.5C 49.3333,386.833 49.3333,353.167 50,319.5C 54.2473,284.588 72.7473,260.755 105.5,248C 113.567,242.597 118.4,235.097 120,225.5C 120.5,219.175 120.666,212.842 120.5,206.5C 128.84,206.666 137.173,206.5 145.5,206C 150.833,201.333 150.833,196.667 145.5,192C 131.765,191.946 118.098,191.28 104.5,190C 99.2478,186.914 98.2478,182.747 101.5,177.5C 102.77,176.712 103.77,175.712 104.5,174.5 Z M 266.5,394.5 C 292.169,394.333 317.835,394.5 343.5,395C 334.357,400.309 327.024,407.476 321.5,416.5C 303.176,417.666 284.842,417.833 266.5,417C 265.183,409.5 265.183,402 266.5,394.5 Z M 368.5,402.5 C 395.934,401.619 413.434,414.286 421,440.5C 423.463,469.1 410.963,487.267 383.5,495C 353.67,497.17 335.503,483.67 329,454.5C 327.58,434.84 335.08,419.673 351.5,409C 357.02,406.11 362.686,403.943 368.5,402.5 Z M 205.5,405.5 C 211.604,408.386 217.604,411.553 223.5,415C 224.517,416.049 224.684,417.216 224,418.5C 209.333,443.833 194.667,469.167 180,494.5C 178.612,495.554 177.112,495.72 175.5,495C 169.959,491.735 164.626,488.235 159.5,484.5C 174.593,457.975 189.926,431.642 205.5,405.5 Z M 152.5,420.5 C 154.144,420.286 155.644,420.62 157,421.5C 159.06,426.62 161.393,431.62 164,436.5C 164.72,438.112 164.554,439.612 163.5,441C 136.231,453.31 109.065,465.81 82,478.5C 77.8495,472.367 74.3495,465.867 71.5,459C 72.1667,458.333 72.8333,457.667 73.5,457C 99.9239,444.785 126.257,432.618 152.5,420.5 Z M 234.5,433.5 C 261.175,433.167 287.842,433.5 314.5,434.5C 312.818,441.72 312.152,449.053 312.5,456.5C 286.498,456.667 260.498,456.5 234.5,456C 233.183,448.5 233.183,441 234.5,433.5 Z M 217.5,461.5 C 220.313,465.467 223.979,468.634 228.5,471C 235.411,472.384 242.411,472.884 249.5,472.5C 249.5,480.167 249.5,487.833 249.5,495.5C 232.497,495.667 215.497,495.5 198.5,495C 204.984,483.86 211.317,472.693 217.5,461.5 Z M 150.5,464.5 C 151.043,464.56 151.376,464.893 151.5,465.5C 148.457,470.252 145.957,475.252 144,480.5C 143.04,485.482 143.873,490.149 146.5,494.5C 129.948,497.131 113.948,495.297 98.5,489C 115.773,480.528 133.106,472.362 150.5,464.5 Z M 266.5,472.5 C 283.513,472.167 300.513,472.501 317.5,473.5C 320.717,481.888 325.717,489.055 332.5,495C 310.169,495.5 287.836,495.667 265.5,495.5C 265.201,487.747 265.534,480.08 266.5,472.5 Z"/></g>
<g><path style="opacity:0.956" fill="#f30000" d="M 251.5,23.5 C 257.348,22.0017 261.181,24.0017 263,29.5C 266.362,31.35 269.362,33.6833 272,36.5C 274.166,43.4894 271.666,47.4894 264.5,48.5C 261.485,47.9039 258.651,46.9039 256,45.5C 254.029,45.2814 252.862,46.1147 252.5,48C 259.186,51.4298 265.686,55.2631 272,59.5C 279.493,72.5188 276.993,83.1854 264.5,91.5C 261.144,100.948 255.644,102.615 248,96.5C 247.51,95.2068 247.343,93.8734 247.5,92.5C 240.769,91.8196 236.435,88.3196 234.5,82C 235.269,77.3975 237.935,74.5641 242.5,73.5C 246.079,75.1248 249.745,76.4582 253.5,77.5C 258.795,77.3567 260.795,74.8567 259.5,70C 253.682,67.5902 248.015,64.9235 242.5,62C 236.788,56.3306 234.955,49.4972 237,41.5C 238.972,37.0285 242.138,33.6951 246.5,31.5C 247.191,28.0953 248.858,25.4286 251.5,23.5 Z"/></g>
<g><path style="opacity:0.956" fill="#f30000" d="M 371.5,410.5 C 378.002,409.562 381.669,412.229 382.5,418.5C 391.561,419.955 394.394,424.955 391,433.5C 385.825,436.313 380.825,435.98 376,432.5C 374.155,433.05 372.655,434.05 371.5,435.5C 376.877,438.8 382.544,441.633 388.5,444C 399.12,455.241 398.786,466.241 387.5,477C 385.919,477.707 384.419,478.54 383,479.5C 381.42,487.371 376.92,489.538 369.5,486C 368.134,484.4 367.134,482.567 366.5,480.5C 362.493,479.336 358.993,477.336 356,474.5C 352.785,465.42 355.952,461.253 365.5,462C 369.218,464.298 373.218,464.965 377.5,464C 380.482,461.809 380.815,459.476 378.5,457C 372.44,455.136 366.774,452.47 361.5,449C 354.573,441.499 353.739,433.332 359,424.5C 361.479,421.931 364.146,419.598 367,417.5C 367.545,414.473 369.045,412.14 371.5,410.5 Z"/></g>
</svg>
